<svg class="icon" style="width: 1em; height: 1em;vertical-align: middle;fill: currentColor;overflow: hidden;" viewBox="0 0 1024 1024" version="1.1" xmlns="http://www.w3.org/2000/svg"><path d="M766.1 57.2c-0.8-0.8-1.6-1.4-2.4-2.2l-50-50c-2.8-2.8-8.2-5-12.1-5H286c-58.1 0-105.4 47.2-105.4 105.1v465.5h82.5V105.1c0-12.4 10.5-22.9 22.9-22.9h364.4v152c0 58 47.3 105.1 105.4 105.1h152.4v579.5c0 12.4-10.5 22.9-22.9 22.9H286c-12.4 0-22.9-10.5-22.9-22.9v-57.9h-82.5v57.9c0 58 47.3 105.1 105.4 105.1h599.2c58.1 0 105.4-47.2 105.4-105.1V288.4c0-3.9-2.2-9.3-5-12l-50.2-50c-0.8-0.8-1.5-1.6-2.3-2.4l-167-166.8z m-33.2 177V129.1c0-3.9 2.2-4.8 5-2.1l125.3 125c2.8 2.8 1.8 5-2.1 5H755.8c-12.4 0.1-22.9-10.4-22.9-22.8zM510.3 665.3H496v48.8h14c18.9 0 28.4-8.2 28.4-24.7 0-16.1-9.4-24.1-28.1-24.1zM679.7 598.5H68c-15.1 0-27.5 12.3-27.5 27.4v180.6c0 15.1 12.4 27.4 27.5 27.4h611.7c15.1 0 27.5-12.3 27.5-27.4V626c0-15.1-12.4-27.5-27.5-27.5zM265 782.1c-10.5 8.1-24.5 12.1-42 12.1-15.6 0-28.1-2.6-37.6-7.7v-27.8c10.1 7.6 21.9 11.3 35.4 11.3 8.5 0 15.3-1.9 20.3-5.7 5-3.8 7.5-9.1 7.5-16.1 0-7.2-3-12.6-8.9-16.4-6-3.8-14.3-5.7-25-5.7h-13.5v-24.3h12.4c20.3 0 30.5-6.8 30.5-20.5 0-12.9-7.8-19.3-23.3-19.3-10.2 0-20 3.3-29.6 10v-26.1c10.4-5.4 22.7-8.1 36.8-8.1 14.3 0 25.9 3.3 34.9 9.9 8.9 6.6 13.4 15.8 13.4 27.5 0 19.8-10 32.2-30.1 37.3v0.5c10.5 1.2 19 5 25.3 11.6 6.3 6.5 9.5 14.5 9.5 23.9-0.2 14.3-5.5 25.5-16 33.6z m168.7-0.7c-14.8 8.5-32.9 12.8-54.5 12.8-24.1 0-43.1-6.8-57-20.3-13.9-13.5-20.9-32.1-20.9-55.6 0-23.8 7.7-43.2 23-58.2 15.3-14.9 35.5-22.4 60.6-22.4 16.1 0 30.2 2.3 42.3 6.8v30.6c-11.7-6.8-26-10.3-43-10.3-14.6 0-26.4 4.8-35.4 14.3s-13.6 22-13.6 37.6c0 15.8 4.1 28.2 12.3 37 8.2 8.9 19.3 13.3 33.4 13.3 8.4 0 15.3-1.3 20.6-3.9V732h-30.6v-25.9h62.8v75.3z m121.5-56c-11.4 9.3-25.6 13.8-42.6 13.4H496v52.7h-32.2V640.3h52c37.6 0 56.4 16 56.4 47.9 0.1 15.5-5.6 27.9-17 37.2zM421.6 341.2l79.3-39.6c7.3-3.6 7.3-14.1 0-17.7l-79.3-39.6c-6.6-3.3-14.3 1.5-14.3 8.9v79.3c-0.1 7.2 7.7 11.9 14.3 8.7z m164.1-167.5H327.8c-16.3 0-29.6 13.4-29.6 29.9v178.1c0 16.5 13.2 29.9 29.6 29.9h257.9c16.3 0 29.6-13.4 29.6-29.9V203.6c0-16.5-13.2-29.9-29.6-29.9zM357.6 381.8c0 5.5-4.2 10-10 10H328c-5.5 0-10-4.2-10-10v-19.6c0-5.5 4.2-10 10-10h19.6c5.5 0 10 4.2 10 10v19.6z m0-79.3c0 5.5-4.2 10-10 10H328c-5.5 0-10-4.2-10-10v-19.6c0-5.5 4.2-10 10-10h19.6c5.5 0 10 4.2 10 10v19.6z m0-79.3c0 5.5-4.2 10-10 10H328c-5.5 0-10-4.2-10-10v-19.6c0-5.5 4.2-10 10-10h19.6c5.5 0 10 4.2 10 10v19.6zM536 391.8H377.5V193.6H536v198.2z m59.5-10c0 5.5-4.2 10-10 10h-19.6c-5.5 0-10-4.2-10-10v-19.6c0-5.5 4.2-10 10-10h19.6c5.5 0 10 4.2 10 10v19.6z m0-79.3c0 5.5-4.2 10-10 10h-19.6c-5.5 0-10-4.2-10-10v-19.6c0-5.5 4.2-10 10-10h19.6c5.5 0 10 4.2 10 10v19.6z m0-79.3c0 5.5-4.2 10-10 10h-19.6c-5.5 0-10-4.2-10-10v-19.6c0-5.5 4.2-10 10-10h19.6c5.5 0 10 4.2 10 10v19.6z" /></svg>