<svg class="icon" style="width: 1em; height: 1em;vertical-align: middle;fill: currentColor;overflow: hidden;" viewBox="0 0 1024 1024" version="1.1" xmlns="http://www.w3.org/2000/svg"><path d="M766.1 57.2c-0.8-0.8-1.6-1.4-2.4-2.2l-50-50c-2.8-2.8-8.2-5-12.1-5H286c-58.1 0-105.4 47.2-105.4 105.1v465.5h82.5V105.1c0-12.4 10.5-22.9 22.9-22.9h364.4v152c0 58 47.3 105.1 105.4 105.1h152.4v579.5c0 12.4-10.5 22.9-22.9 22.9H286c-12.4 0-22.9-10.5-22.9-22.9v-57.9h-82.5v57.9c0 58 47.3 105.1 105.4 105.1h599.2c58.1 0 105.4-47.2 105.4-105.1V288.4c0-3.9-2.2-9.3-5-12l-50.2-50c-0.8-0.8-1.5-1.6-2.3-2.4l-167-166.8z m-33.2 177V129.1c0-3.9 2.2-4.8 5-2.1l125.3 125c2.8 2.8 1.8 5-2.1 5H755.8c-12.4 0.1-22.9-10.4-22.9-22.8zM224.9 731.3c-4.6-3.5-11-5.3-19.4-5.3h-18.8v41.5h19.1c8.1 0 14.5-1.9 19.1-5.7 4.6-3.8 6.9-9 6.9-15.7 0-6.3-2.3-11.3-6.9-14.8zM219.4 696.5c4.2-3.5 6.3-8.4 6.3-14.7 0-11.6-8.5-17.4-25.4-17.4h-13.7v37.4H202c7.3-0.1 13.1-1.8 17.4-5.3zM543.3 665.3H529v48.8h14c18.9 0 28.4-8.2 28.4-24.7 0-16.1-9.4-24.1-28.1-24.1zM679.7 598.5H68c-15.1 0-27.5 12.3-27.5 27.4v180.6c0 15.1 12.4 27.4 27.5 27.4h611.7c15.1 0 27.5-12.3 27.5-27.4V626c0-15.1-12.4-27.5-27.5-27.5zM251 779.4c-9.8 8.1-23.1 12.2-40 12.2h-56.5V640.3h53.7c16.5 0 29.2 3.1 38.1 9.4 8.9 6.3 13.4 14.9 13.4 26 0 8.2-2.8 15.4-8.3 21.6-5.5 6.2-12.5 10.4-20.9 12.8v0.4c10.5 1.3 19.1 5.2 25.5 11.7 6.5 6.5 9.7 14.7 9.7 24.5-0.1 13.7-4.9 24.6-14.7 32.7z m210.4 12.2h-31.8v-91.8c0-8.5 0.4-19.1 1.3-31.9h-0.8c-2 9.7-3.5 16.2-4.7 19.4l-37.3 104.3h-25.7l-37.8-103.3c-0.9-2.5-2.5-9.3-4.8-20.4h-0.8c0.8 12.7 1.3 25.4 1.3 38.2v85.5h-29.1V640.3H338l32.6 91.4c2.7 7.6 4.6 14.6 5.6 21.3h0.7c2-8.3 4.1-15.4 6.3-21.5l32.7-91.2h45.6v151.3z m126.9-66.2c-11.4 9.3-25.6 13.8-42.6 13.4H529v52.7h-32.2V640.3h52c37.6 0 56.4 16 56.4 47.9 0.1 15.5-5.6 27.9-16.9 37.2zM592.6 168.5H323.8c-13.5 0-24.4 10.9-24.4 24.4v244.4c0 13.5 10.9 24.4 24.4 24.4h268.8c13.5 0 24.4-10.9 24.4-24.4V192.9c0-13.5-10.9-24.4-24.4-24.4z m0 268.8H323.8V192.9h268.8v244.4zM384.9 278.4c13.5 0 24.4-10.9 24.4-24.4 0-13.5-10.9-24.4-24.4-24.4-13.5 0-24.4 10.9-24.4 24.4-0.1 13.5 10.9 24.4 24.4 24.4zM507.1 265.2l-72.4 109.7-37.5-56-61.2 93.9h244.4l-73.3-147.6z" /></svg>