<svg class="icon" style="width: 1em; height: 1em;vertical-align: middle;fill: currentColor;overflow: hidden;" viewBox="0 0 1024 1024" version="1.1" xmlns="http://www.w3.org/2000/svg"><path d="M766.1 57.2c-0.8-0.8-1.6-1.4-2.4-2.2l-50-50c-2.8-2.8-8.2-5-12.1-5H286c-58.1 0-105.4 47.2-105.4 105.1v465.5h82.5V105.1c0-12.4 10.5-22.9 22.9-22.9h364.4v152c0 58 47.3 105.1 105.4 105.1h152.4v579.5c0 12.4-10.5 22.9-22.9 22.9H286c-12.4 0-22.9-10.5-22.9-22.9v-57.9h-82.5v57.9c0 58 47.3 105.1 105.4 105.1h599.2c58.1 0 105.4-47.2 105.4-105.1V288.4c0-3.9-2.2-9.3-5-12l-50.2-50c-0.8-0.8-1.5-1.6-2.3-2.4l-167-166.8z m-33.2 177V129.1c0-3.9 2.2-4.8 5-2.1l125.3 125c2.8 2.8 1.8 5-2.1 5H755.8c-12.4 0.1-22.9-10.4-22.9-22.8zM530.4 696.5c4.2-3.5 6.3-8.4 6.3-14.7 0-11.6-8.5-17.4-25.4-17.4h-13.7v37.4h15.3c7.5-0.1 13.3-1.8 17.5-5.3zM536 731.3c-4.6-3.5-11-5.3-19.4-5.3h-18.8v41.5h19.1c8.1 0 14.5-1.9 19.1-5.7 4.6-3.8 6.9-9 6.9-15.7-0.1-6.3-2.3-11.3-6.9-14.8zM372.7 666.4h-0.9c-0.4 4.4-1.3 8.7-2.6 12.8L351.9 732h40.3L375 679.6c-1-3.4-1.8-7.8-2.3-13.2zM679.7 598.5H68c-15.1 0-27.5 12.3-27.5 27.4v180.6c0 15.1 12.4 27.4 27.5 27.4h611.7c15.1 0 27.5-12.3 27.5-27.4V626c0-15.1-12.4-27.5-27.5-27.5z m-391.3 76.2c-10.2-6-21.8-9-34.8-9-14.8 0-26.6 4.7-35.4 14.2-8.9 9.4-13.3 21.8-13.3 37 0 14.8 4.2 26.8 12.6 35.8 8.4 9 19.8 13.6 34.1 13.6 13.5 0 25.7-3.3 36.8-9.8v29.6c-11 5.4-25.4 8.1-43.1 8.1-22.8 0-40.9-6.8-54.2-20.5-13.4-13.6-20.1-31.8-20.1-54.5 0-23.9 7.5-43.4 22.4-58.6 14.9-15.2 34.2-22.8 57.9-22.8 14.8 0 27.1 1.9 37.1 5.8v31.1z m122.8 116.9l-11.3-34.7h-55l-11.1 34.7h-35l55.4-151.3h37.9l54.3 151.3h-35.2z m150.9-12.2c-9.8 8.1-23.1 12.2-40 12.2h-56.5V640.3h53.7c16.5 0 29.2 3.1 38.1 9.4s13.4 14.9 13.4 26c0 8.2-2.8 15.4-8.3 21.6-5.5 6.2-12.5 10.4-20.9 12.8v0.4c10.5 1.3 19.1 5.2 25.5 11.7 6.5 6.5 9.7 14.7 9.7 24.5-0.1 13.7-5 24.6-14.7 32.7zM468.4 81.5h71v47.4h-71zM397.4 128.9h71v47.3h-71zM468.4 176.2h71v47.3h-71zM397.4 223.5h71v47.3h-71zM468.4 270.8h71v47.3h-71zM397.4 318.1h71v47.3h-71zM468.4 365.4h71v47.3h-71zM397.4 412.7h142V460h-142zM397.4 460h15.1v47.3h-15.1zM523.7 460h15.7v47.3h-15.7zM539.4 543.1c0 13.1-11 11.5-24.5 11.5H422c-13.6 0-24.5 1.7-24.5-11.3V531v-23.6h141.9v35.7z" /></svg>