<svg class="icon" style="width: 1em; height: 1em;vertical-align: middle;fill: currentColor;overflow: hidden;" viewBox="0 0 1024 1024" version="1.1" xmlns="http://www.w3.org/2000/svg"><path d="M766.1 57.2c-0.8-0.8-1.6-1.4-2.4-2.2l-50-50c-2.8-2.8-8.2-5-12.1-5H286c-58.1 0-105.4 47.2-105.4 105.1v465.5h82.5V105.1c0-12.4 10.5-22.9 22.9-22.9h364.4v152c0 58 47.3 105.1 105.4 105.1h152.4v579.5c0 12.4-10.5 22.9-22.9 22.9H286c-12.4 0-22.9-10.5-22.9-22.9v-57.9h-82.5v57.9c0 58 47.3 105.1 105.4 105.1h599.2c58.1 0 105.4-47.2 105.4-105.1V288.4c0-3.9-2.2-9.3-5-12l-50.2-50c-0.8-0.8-1.5-1.6-2.3-2.4l-167-166.8z m-33.2 177V129.1c0-3.9 2.2-4.8 5-2.1l125.3 125c2.8 2.8 1.8 5-2.1 5H755.8c-12.4 0.1-22.9-10.4-22.9-22.8zM516.6 664.8h-16.4v43.6H516c7.6 0 13.6-2.2 18.2-6.6s6.9-9.9 6.9-16.5c0-13.6-8.1-20.5-24.5-20.5zM394.9 679.3c-9.1-8.4-21-12.6-35.5-12.6h-17.5v98.5h17.6c15.3 0 27.3-4.6 36-13.7s13.1-21.5 13.1-37c0-15-4.5-26.7-13.7-35.2zM679.7 598.5H68c-15.1 0-27.5 12.3-27.5 27.4v180.6c0 15.1 12.4 27.4 27.5 27.4h611.7c15.1 0 27.5-12.3 27.5-27.4V626c0-15.1-12.4-27.5-27.5-27.5z m-396.8 76.2c-10.2-6-21.8-9-34.8-9-14.8 0-26.6 4.7-35.4 14.2-8.9 9.4-13.3 21.8-13.3 37 0 14.8 4.2 26.8 12.6 35.8 8.4 9 19.8 13.6 34.1 13.6 13.5 0 25.7-3.3 36.8-9.8v29.6c-11 5.4-25.4 8.1-43.1 8.1-22.8 0-40.9-6.8-54.2-20.5-13.4-13.6-20.1-31.8-20.1-54.5 0-23.9 7.5-43.4 22.4-58.6 14.9-15.2 34.2-22.8 57.9-22.8 14.8 0 27.1 1.9 37.1 5.8v31.1z m137 95.6c-15 14.2-34.4 21.2-58.2 21.2h-52.1V640.3h52.2c53.7 0 80.6 24.6 80.6 73.7 0.1 23.4-7.4 42.2-22.5 56.3z m135.8 21.3L532 752.2c-4.9-8.1-8.9-13.4-12-15.7s-6.4-3.5-10-3.5h-9.8v58.6H468V640.3h53c36 0 54 13.7 54 41 0 10.3-3 19.1-9 26.5-6 7.4-14.3 12.5-24.9 15.5v0.4c7 2.3 14.7 10 23.1 23l28.5 44.8h-37zM592.6 168.5H323.8c-13.5 0-24.4 10.9-24.4 24.4v244.4c0 13.5 10.9 24.4 24.4 24.4h268.8c13.5 0 24.4-10.9 24.4-24.4V192.9c0-13.5-10.9-24.4-24.4-24.4z m0 268.8H323.8V192.9h268.8v244.4zM384.9 278.4c13.5 0 24.4-10.9 24.4-24.4 0-13.5-10.9-24.4-24.4-24.4-13.5 0-24.4 10.9-24.4 24.4-0.1 13.5 10.9 24.4 24.4 24.4zM507.1 265.2l-72.4 109.7-37.5-56-61.2 93.9h244.4l-73.3-147.6z" /></svg>