<svg class="icon" style="width: 1em; height: 1em;vertical-align: middle;fill: currentColor;overflow: hidden;" viewBox="0 0 1024 1024" version="1.1" xmlns="http://www.w3.org/2000/svg"><path d="M766.1 57.2c-0.8-0.8-1.6-1.4-2.4-2.2l-50-50c-2.8-2.8-8.2-5-12.1-5H286c-58.1 0-105.4 47.2-105.4 105.1v465.5h82.5V105.1c0-12.4 10.5-22.9 22.9-22.9h364.4v152c0 58 47.3 105.1 105.4 105.1h152.4v579.5c0 12.4-10.5 22.9-22.9 22.9H286c-12.4 0-22.9-10.5-22.9-22.9v-57.9h-82.5v57.9c0 58 47.3 105.1 105.4 105.1h599.2c58.1 0 105.4-47.2 105.4-105.1V288.4c0-3.9-2.2-9.3-5-12l-50.2-50c-0.8-0.8-1.5-1.6-2.3-2.4l-167-166.8z m-33.2 177V129.1c0-3.9 2.2-4.8 5-2.1l125.3 125c2.8 2.8 1.8 5-2.1 5H755.8c-12.4 0.1-22.9-10.4-22.9-22.8zM396.3 666.4h-0.9c-0.4 4.4-1.3 8.7-2.6 12.8L375.5 732h40.3l-17.2-52.4c-1.1-3.4-1.8-7.8-2.3-13.2zM679.7 598.5H68c-15.1 0-27.5 12.3-27.5 27.4v180.6c0 15.1 12.4 27.4 27.5 27.4h611.7c15.1 0 27.5-12.3 27.5-27.4V626c0-15.1-12.4-27.5-27.5-27.5zM293.9 770.3c-15 14.2-34.4 21.2-58.2 21.2h-52V640.3h52.2c53.7 0 80.6 24.6 80.6 73.7-0.1 23.4-7.6 42.2-22.6 56.3z m140.9 21.3l-11.3-34.7h-55l-11.1 34.7h-35l55.4-151.3h37.9L470 791.6h-35.2z m143.5-124.9h-43.2v124.9h-32.3V666.7h-43.1v-26.4h118.6v26.4zM268.9 679.3c-9.1-8.4-21-12.6-35.5-12.6h-17.5v98.5h17.6c15.3 0 27.3-4.6 36-13.7s13.1-21.5 13.1-37c-0.1-15-4.6-26.7-13.7-35.2zM421.6 341.2l79.3-39.6c7.3-3.6 7.3-14.1 0-17.7l-79.3-39.6c-6.6-3.3-14.3 1.5-14.3 8.9v79.3c-0.1 7.2 7.7 11.9 14.3 8.7z m164.1-167.5H327.8c-16.3 0-29.6 13.4-29.6 29.9v178.1c0 16.5 13.2 29.9 29.6 29.9h257.9c16.3 0 29.6-13.4 29.6-29.9V203.6c0-16.5-13.2-29.9-29.6-29.9zM357.6 381.8c0 5.5-4.2 10-10 10H328c-5.5 0-10-4.2-10-10v-19.6c0-5.5 4.2-10 10-10h19.6c5.5 0 10 4.2 10 10v19.6z m0-79.3c0 5.5-4.2 10-10 10H328c-5.5 0-10-4.2-10-10v-19.6c0-5.5 4.2-10 10-10h19.6c5.5 0 10 4.2 10 10v19.6z m0-79.3c0 5.5-4.2 10-10 10H328c-5.5 0-10-4.2-10-10v-19.6c0-5.5 4.2-10 10-10h19.6c5.5 0 10 4.2 10 10v19.6zM536 391.8H377.5V193.6H536v198.2z m59.5-10c0 5.5-4.2 10-10 10h-19.6c-5.5 0-10-4.2-10-10v-19.6c0-5.5 4.2-10 10-10h19.6c5.5 0 10 4.2 10 10v19.6z m0-79.3c0 5.5-4.2 10-10 10h-19.6c-5.5 0-10-4.2-10-10v-19.6c0-5.5 4.2-10 10-10h19.6c5.5 0 10 4.2 10 10v19.6z m0-79.3c0 5.5-4.2 10-10 10h-19.6c-5.5 0-10-4.2-10-10v-19.6c0-5.5 4.2-10 10-10h19.6c5.5 0 10 4.2 10 10v19.6z" /></svg>