<svg class="icon" style="width: 1em; height: 1em;vertical-align: middle;fill: currentColor;overflow: hidden;" viewBox="0 0 1024 1024" version="1.1" xmlns="http://www.w3.org/2000/svg"><path d="M766.1 57.2c-0.8-0.8-1.6-1.4-2.4-2.2l-50-50c-2.8-2.8-8.2-5-12.1-5H286c-58.1 0-105.4 47.2-105.4 105.1v465.5h82.5V105.1c0-12.4 10.5-22.9 22.9-22.9h364.4v152c0 58 47.3 105.1 105.4 105.1h152.4v579.5c0 12.4-10.5 22.9-22.9 22.9H286c-12.4 0-22.9-10.5-22.9-22.9v-57.9h-82.5v57.9c0 58 47.3 105.1 105.4 105.1h599.2c58.1 0 105.4-47.2 105.4-105.1V288.4c0-3.9-2.2-9.3-5-12l-50.2-50c-0.8-0.8-1.5-1.6-2.3-2.4l-167-166.8z m-33.2 177V129.1c0-3.9 2.2-4.8 5-2.1l125.3 125c2.8 2.8 1.8 5-2.1 5H755.8c-12.4 0.1-22.9-10.4-22.9-22.8zM448.7 124h174.9v40H448.7zM292.1 124H413v113.6H292.1zM448.7 197.6h174.9v40H448.7zM292.1 271.2h331.5v40H292.1zM292.1 344.8h331.5v40H292.1zM292.1 418.4h331.4v40H292.1zM292.1 492h331.4v40H292.1zM874.3 380.8L833.9 532h-35.8l-25.8-98.6c-1.4-5.3-2.2-10.9-2.4-16.7h-0.4c-0.7 6.8-1.6 12.3-2.7 16.7L740.4 532h-37.2l-40.3-151.3h35.4l22.5 102.5c1 4.5 1.7 10.2 2.1 17h0.7c0.3-5.3 1.3-11.2 3-17.5l28.1-102.1H789l25.6 103.3c1 4.1 1.9 9.4 2.4 16h0.5c0.3-5.7 1-11.2 2.2-16.6l22-102.7h32.6zM248.3 679.3c-9.1-8.4-21-12.6-35.5-12.6h-17.5v98.5h17.6c15.3 0 27.3-4.6 36-13.7s13.1-21.5 13.1-37c-0.1-15-4.6-26.7-13.7-35.2zM679.7 598.5H68c-15.1 0-27.5 12.3-27.5 27.4v180.6c0 15.1 12.4 27.4 27.5 27.4h611.7c15.1 0 27.5-12.3 27.5-27.4V626c0-15.1-12.4-27.5-27.5-27.5zM273.3 770.3c-15 14.2-34.4 21.2-58.2 21.2H163V640.3h52.2c53.7 0 80.6 24.6 80.6 73.7 0 23.4-7.5 42.2-22.5 56.3z m165.5 1.9c-13.7 14.7-31.7 22-53.9 22-21.7 0-39.3-7.1-52.8-21.3-13.5-14.2-20.3-32.5-20.3-54.9 0-23.7 6.9-43 20.8-57.9 13.8-14.9 32.1-22.3 54.8-22.3 21.6 0 39 7.2 52.2 21.6 13.2 14.4 19.8 32.9 19.8 55.5 0 23.5-6.9 42.6-20.6 57.3z m154.1-97.5c-10.2-6-21.8-9-34.8-9-14.8 0-26.6 4.7-35.4 14.2-8.9 9.4-13.3 21.8-13.3 37 0 14.8 4.2 26.8 12.6 35.8 8.4 9 19.8 13.6 34.1 13.6 13.5 0 25.7-3.3 36.8-9.8v29.6c-11 5.4-25.4 8.1-43.1 8.1-22.8 0-40.9-6.8-54.2-20.5-13.4-13.6-20.1-31.8-20.1-54.5 0-23.9 7.5-43.4 22.4-58.6 14.9-15.2 34.2-22.8 57.9-22.8 14.8 0 27.1 1.9 37.1 5.8v31.1zM386.4 665.7c-12.6 0-22.6 4.7-29.8 14.1-7.3 9.4-10.9 21.5-10.9 36.4 0 14.7 3.5 26.7 10.6 36.1 7.1 9.3 16.8 14 29.2 14 12.6 0 22.5-4.5 29.5-13.4 7-9 10.5-21 10.5-36.1 0-15.8-3.4-28.2-10.3-37.4-6.7-9.1-16.3-13.7-28.8-13.7z" /></svg>