<svg class="icon" style="width: 1em; height: 1em;vertical-align: middle;fill: currentColor;overflow: hidden;" viewBox="0 0 1024 1024" version="1.1" xmlns="http://www.w3.org/2000/svg"><path d="M766.1 57.2c-0.8-0.8-1.6-1.4-2.4-2.2l-50-50c-2.8-2.8-8.2-5-12.1-5H286c-58.1 0-105.4 47.2-105.4 105.1v465.5h82.5V105.1c0-12.4 10.5-22.9 22.9-22.9h364.4v152c0 58 47.3 105.1 105.4 105.1h152.4v579.5c0 12.4-10.5 22.9-22.9 22.9H286c-12.4 0-22.9-10.5-22.9-22.9v-57.9h-82.5v57.9c0 58 47.3 105.1 105.4 105.1h599.2c58.1 0 105.4-47.2 105.4-105.1V288.4c0-3.9-2.2-9.3-5-12l-50.2-50c-0.8-0.8-1.5-1.6-2.3-2.4l-167-166.8z m-33.2 177V129.1c0-3.9 2.2-4.8 5-2.1l125.3 125c2.8 2.8 1.8 5-2.1 5H755.8c-12.4 0.1-22.9-10.4-22.9-22.8zM274.8 679.3c-9.1-8.4-21-12.6-35.5-12.6h-17.5v98.5h17.6c15.3 0 27.3-4.6 36-13.7s13.1-21.5 13.1-37c-0.1-15-4.6-26.7-13.7-35.2zM679.7 598.5H68c-15.1 0-27.5 12.3-27.5 27.4v180.6c0 15.1 12.4 27.4 27.5 27.4h611.7c15.1 0 27.5-12.3 27.5-27.4V626c0-15.1-12.4-27.5-27.5-27.5zM299.8 770.3c-15 14.2-34.4 21.2-58.2 21.2h-52V640.3h52.2c53.7 0 80.6 24.6 80.6 73.7-0.1 23.4-7.6 42.2-22.6 56.3z m124.9 21.3l-27.1-50.2c-1-1.8-2-5.1-3-9.9h-0.4c-0.5 2.3-1.7 5.7-3.5 10.2l-27.2 49.9h-38.6l48.5-75.7-44.4-75.6h39.3l22.6 46.3c1.8 3.8 3.4 7.9 4.7 12.5h0.4c1.4-4.1 3-8.4 5-13l24.9-45.8h36l-45.7 75 46.9 76.3h-38.4z m138.7-86.1v26.4h-49.7v59.7h-32.2V640.3h86.2v26.4h-54v38.9h49.7zM592.6 168.5H323.8c-13.5 0-24.4 10.9-24.4 24.4v244.4c0 13.5 10.9 24.4 24.4 24.4h268.8c13.5 0 24.4-10.9 24.4-24.4V192.9c0-13.5-10.9-24.4-24.4-24.4z m0 268.8H323.8V192.9h268.8v244.4zM384.9 278.4c13.5 0 24.4-10.9 24.4-24.4 0-13.5-10.9-24.4-24.4-24.4-13.5 0-24.4 10.9-24.4 24.4-0.1 13.5 10.9 24.4 24.4 24.4zM507.1 265.2l-72.4 109.7-37.5-56-61.2 93.9h244.4l-73.3-147.6z" /></svg>