<svg class="icon" style="width: 1em; height: 1em;vertical-align: middle;fill: currentColor;overflow: hidden;" viewBox="0 0 1024 1024" version="1.1" xmlns="http://www.w3.org/2000/svg"><path d="M766.1 57.2c-0.8-0.8-1.6-1.4-2.4-2.2l-50-50c-2.8-2.8-8.2-5-12.1-5H286c-58.1 0-105.4 47.2-105.4 105.1v465.5h82.5V105.1c0-12.4 10.5-22.9 22.9-22.9h364.4v152c0 58 47.3 105.1 105.4 105.1h152.4v579.5c0 12.4-10.5 22.9-22.9 22.9H286c-12.4 0-22.9-10.5-22.9-22.9v-57.9h-82.5v57.9c0 58 47.3 105.1 105.4 105.1h599.2c58.1 0 105.4-47.2 105.4-105.1V288.4c0-3.9-2.2-9.3-5-12l-50.2-50c-0.8-0.8-1.5-1.6-2.3-2.4l-167-166.8z m-33.2 177V129.1c0-3.9 2.2-4.8 5-2.1l125.3 125c2.8 2.8 1.8 5-2.1 5H755.8c-12.4 0.1-22.9-10.4-22.9-22.8zM421 666.4h-0.9c-0.4 4.4-1.3 8.7-2.6 12.8L400.2 732h40.3l-17.2-52.4c-1-3.4-1.8-7.8-2.3-13.2zM679.7 598.5H68c-15.1 0-27.5 12.3-27.5 27.4v180.6c0 15.1 12.4 27.4 27.5 27.4h611.7c15.1 0 27.5-12.3 27.5-27.4V626c0-15.1-12.4-27.5-27.5-27.5z m-460.3 107v26.4h-49.7v59.7h-32.2V640.3h86.2v26.4h-54v38.9h49.7z m118.4 86.1H249V640.3h32.2v124.9h56.5v26.4z m121.7 0l-11.3-34.7h-55l-11.1 34.7h-35l55.4-151.3h37.9l54.3 151.3h-35.2z m159-5.5c-11 5.4-25.4 8.1-43.1 8.1-22.8 0-40.9-6.8-54.2-20.5-13.4-13.6-20.1-31.8-20.1-54.5 0-23.9 7.5-43.4 22.4-58.6 14.9-15.2 34.2-22.8 57.9-22.8 14.8 0 27.1 1.9 37.1 5.8v31.2c-10.2-6-21.8-9-34.8-9-14.8 0-26.6 4.7-35.4 14.2-8.9 9.4-13.3 21.8-13.3 37 0 14.8 4.2 26.8 12.6 35.8 8.4 9 19.8 13.6 34.1 13.6 13.5 0 25.7-3.3 36.8-9.8v29.5zM582.1 140.8l-153 46.8c-18.5 5.3-33.6 24.6-33.6 43.1V392.1s-11.1-7.5-35.8-4c-36.3 5.2-65.7 33-65.7 62.2s29.4 47.1 65.7 41.9c36.3-5.1 62.9-32.1 62.9-61.3V293.1c0-13 15.6-18.5 15.6-18.5l135.3-42.4s15-5 15 8.8V351.7s-13.8-7.9-38.5-4.9c-36.3 4.4-65.7 31.6-65.7 60.8 0 29.2 29.4 47.7 65.7 43.3 36.3-4.4 65.7-31.6 65.7-60.8V164.8c0-18.6-15-29.3-33.6-24z" /></svg>