<svg class="icon" style="width: 1em; height: 1em;vertical-align: middle;fill: currentColor;overflow: hidden;" viewBox="0 0 1024 1024" version="1.1" xmlns="http://www.w3.org/2000/svg"><path d="M766.1 57.2c-0.8-0.8-1.6-1.4-2.4-2.2l-50-50c-2.8-2.8-8.2-5-12.1-5H286c-58.1 0-105.4 47.2-105.4 105.1v465.5h82.5V105.1c0-12.4 10.5-22.9 22.9-22.9h364.4v152c0 58 47.3 105.1 105.4 105.1h152.4v579.5c0 12.4-10.5 22.9-22.9 22.9H286c-12.4 0-22.9-10.5-22.9-22.9v-57.9h-82.5v57.9c0 58 47.3 105.1 105.4 105.1h599.2c58.1 0 105.4-47.2 105.4-105.1V288.4c0-3.9-2.2-9.3-5-12l-50.2-50c-0.8-0.8-1.5-1.6-2.3-2.4l-167-166.8z m-33.2 177V129.1c0-3.9 2.2-4.8 5-2.1l125.3 125c2.8 2.8 1.8 5-2.1 5H755.8c-12.4 0.1-22.9-10.4-22.9-22.8zM679.7 598.5H68c-15.1 0-27.5 12.3-27.5 27.4v180.6c0 15.1 12.4 27.4 27.5 27.4h611.7c15.1 0 27.5-12.3 27.5-27.4V626c0-15.1-12.4-27.5-27.5-27.5zM218 791.6h-32.2v-62.4h-64.5v62.4H89.1V640.3h32.2v61h64.5v-61H218v151.3z m139.8-124.9h-43.2v124.9h-32.3V666.7h-43.1v-26.4h118.6v26.4z m191 124.9H517v-91.8c0-8.5 0.4-19.1 1.3-31.9h-0.8c-2 9.7-3.5 16.2-4.7 19.4l-37.3 104.3h-25.7L412 688.3c-0.9-2.5-2.5-9.3-4.8-20.4h-0.9c0.8 12.7 1.3 25.4 1.3 38.2v85.5h-29.1V640.3h46.9l32.6 91.4c2.7 7.6 4.6 14.6 5.6 21.3h0.7c2-8.3 4.1-15.4 6.3-21.5l32.7-91.2h45.6v151.3z m35.3 0V640.3h32.2v124.9h56.5v26.4h-88.7zM425.5 449.3l-14.5-4.1c-4-1.1-6.5-5.1-5.5-8.8L470 188.5c1-3.9 5.3-6 9.6-4.9l15.5 4.2c4.3 1.1 6.9 5.2 5.9 9.1l-66.5 247.7c-1 3.7-5 5.8-9 4.7zM400 390.3l-11.3 11.3c-3.1 3.1-8.2 3.1-11.3 0L298 322.2c-3.1-3.1-3.1-8.2 0-11.3l79.4-79.4c3.1-3.1 8.2-3.1 11.3 0l11.3 11.3c3.1 3.1 3.1 8.2 0 11.3l-62.4 62.4 62.4 62.4c3.1 3.2 3.1 8.2 0 11.4zM520.1 253l11.3-11.3c3.1-3.1 8.2-3.1 11.3 0l79.4 79.4c3.1 3.1 3.1 8.2 0 11.3l-79.4 79.4c-3.1 3.1-8.2 3.1-11.3 0l-11.3-11.3c-3.1-3.1-3.1-8.2 0-11.3l62.4-62.4-62.4-62.4c-3.1-3.2-3.1-8.3 0-11.4z" /></svg>