<svg class="icon" style="width: 1em; height: 1em;vertical-align: middle;fill: currentColor;overflow: hidden;" viewBox="0 0 1024 1024" version="1.1" xmlns="http://www.w3.org/2000/svg"><path d="M766.1 57.2c-0.8-0.8-1.6-1.4-2.4-2.2l-50-50c-2.8-2.8-8.2-5-12.1-5H286c-58.1 0-105.4 47.2-105.4 105.1v465.5h82.5V105.1c0-12.4 10.5-22.9 22.9-22.9h364.4v152c0 58 47.3 105.1 105.4 105.1h152.4v579.5c0 12.4-10.5 22.9-22.9 22.9H286c-12.4 0-22.9-10.5-22.9-22.9v-57.9h-82.5v57.9c0 58 47.3 105.1 105.4 105.1h599.2c58.1 0 105.4-47.2 105.4-105.1V288.4c0-3.9-2.2-9.3-5-12l-50.2-50c-0.8-0.8-1.5-1.6-2.3-2.4l-167-166.8z m-33.2 177V129.1c0-3.9 2.2-4.8 5-2.1l125.3 125c2.8 2.8 1.8 5-2.1 5H755.8c-12.4 0.1-22.9-10.4-22.9-22.8zM679.7 598.5H68c-15.1 0-27.5 12.3-27.5 27.4v180.6c0 15.1 12.4 27.4 27.5 27.4h611.7c15.1 0 27.5-12.3 27.5-27.4V626c0-15.1-12.4-27.5-27.5-27.5z m-418.8 168v25.1h-58v-25.1h12.8V665.4h-12.8v-25.1h58v25.1h-13v101.1h13z m101.5 16.3c-10.3 7.6-24.9 11.4-43.8 11.4-17.3 0-31.5-2.8-42.6-8.4v-32.3c12.2 10.1 26 15.1 41.5 15.1 8.8 0 15.4-1.5 19.8-4.5s6.6-6.9 6.6-11.7c0-4.1-1.8-8-5.3-11.6-3.5-3.6-12.8-8.6-27.8-14.8-23.6-10-35.4-24.6-35.4-43.8 0-14.1 5.4-25 16.1-32.8 10.7-7.8 24.9-11.7 42.5-11.7 14.8 0 27.2 1.9 37.2 5.8v30.3c-10.2-6.9-22-10.4-35.6-10.4-7.9 0-14.3 1.4-19 4.3-4.8 2.9-7.1 6.8-7.1 11.7 0 3.9 1.6 7.5 4.9 10.8 3.3 3.3 11.3 7.7 24.1 13.3 15 6.4 25.4 13.2 31 20.4 5.6 7.2 8.4 15.7 8.4 25.6-0.1 14.6-5.2 25.7-15.5 33.3z m158.3-10.6c-13.7 14.7-31.7 22-53.9 22-21.7 0-39.3-7.1-52.8-21.3-13.5-14.2-20.3-32.5-20.3-54.9 0-23.7 6.9-43 20.8-57.9 13.8-14.9 32.1-22.3 54.8-22.3 21.6 0 39 7.2 52.2 21.6 13.2 14.4 19.8 32.9 19.8 55.5 0 23.5-6.9 42.6-20.6 57.3zM468.3 665.7c-12.6 0-22.6 4.7-29.8 14.1-7.3 9.4-10.9 21.5-10.9 36.4 0 14.7 3.5 26.7 10.6 36.1 7.1 9.3 16.8 14 29.2 14 12.6 0 22.5-4.5 29.5-13.4 7-9 10.5-21 10.5-36.1 0-15.8-3.4-28.2-10.3-37.4-6.7-9.1-16.3-13.7-28.8-13.7zM468.4 81.5h71v47.4h-71zM397.4 128.9h71v47.3h-71zM468.4 176.2h71v47.3h-71zM397.4 223.5h71v47.3h-71zM468.4 270.8h71v47.3h-71zM397.4 318.1h71v47.3h-71zM468.4 365.4h71v47.3h-71zM397.4 412.7h142V460h-142zM397.4 460h15.1v47.3h-15.1zM523.7 460h15.7v47.3h-15.7zM539.4 543.1c0 13.1-11 11.5-24.5 11.5H422c-13.6 0-24.5 1.7-24.5-11.3V531v-23.6h141.9v35.7z" /></svg>