<svg class="icon" style="width: 1em; height: 1em;vertical-align: middle;fill: currentColor;overflow: hidden;" viewBox="0 0 1024 1024" version="1.1" xmlns="http://www.w3.org/2000/svg"><path d="M766.1 57.2c-0.8-0.8-1.6-1.4-2.4-2.2l-50-50c-2.8-2.8-8.2-5-12.1-5H286c-58.1 0-105.4 47.2-105.4 105.1v465.5h82.5V105.1c0-12.4 10.5-22.9 22.9-22.9h364.4v152c0 58 47.3 105.1 105.4 105.1h152.4v579.5c0 12.4-10.5 22.9-22.9 22.9H286c-12.4 0-22.9-10.5-22.9-22.9v-57.9h-82.5v57.9c0 58 47.3 105.1 105.4 105.1h599.2c58.1 0 105.4-47.2 105.4-105.1V288.4c0-3.9-2.2-9.3-5-12l-50.2-50c-0.8-0.8-1.5-1.6-2.3-2.4l-167-166.8z m-33.2 177V129.1c0-3.9 2.2-4.8 5-2.1l125.3 125c2.8 2.8 1.8 5-2.1 5H755.8c-12.4 0.1-22.9-10.4-22.9-22.8zM679.7 598.5H68c-15.1 0-27.5 12.3-27.5 27.4v180.6c0 15.1 12.4 27.4 27.5 27.4h611.7c15.1 0 27.5-12.3 27.5-27.4V626c0-15.1-12.4-27.5-27.5-27.5zM205.4 732.2c0 20-4.6 35.3-13.8 46-9.2 10.7-22.4 16-39.6 16-7.6 0-14.7-1.3-21.2-3.9v-30.4c5.6 4.2 12 6.3 19.1 6.3 15.5 0 23.2-11.8 23.2-35.3v-90.7h32.2v92z m125-6.8c-11.4 9.3-25.6 13.8-42.6 13.4h-16.6v52.7H239V640.3h52c37.6 0 56.4 16 56.4 47.9 0 15.5-5.6 27.9-17 37.2z m40 66.2V640.3h86v26.4h-53.8v35.6h50v26.3h-50v36.6h57.3v26.4h-89.5z m182.8 2.6c-24.1 0-43.1-6.8-57-20.3-13.9-13.5-20.9-32.1-20.9-55.6 0-23.8 7.7-43.2 23-58.2s35.5-22.4 60.6-22.4c16.1 0 30.2 2.3 42.3 6.8v30.6c-11.7-6.8-26-10.3-43-10.3-14.6 0-26.4 4.8-35.4 14.3s-13.6 22-13.6 37.6c0 15.8 4.1 28.2 12.3 37s19.3 13.3 33.4 13.3c8.4 0 15.3-1.3 20.6-3.9V732h-30.6v-25.9h62.8v75.2c-14.8 8.6-33 12.9-54.5 12.9zM285.4 665.3h-14.3v48.8h14c18.9 0 28.4-8.2 28.4-24.7 0-16.1-9.3-24.1-28.1-24.1zM592.6 168.5H323.8c-13.5 0-24.4 10.9-24.4 24.4v244.4c0 13.5 10.9 24.4 24.4 24.4h268.8c13.5 0 24.4-10.9 24.4-24.4V192.9c0-13.5-10.9-24.4-24.4-24.4z m0 268.8H323.8V192.9h268.8v244.4zM384.9 278.4c13.5 0 24.4-10.9 24.4-24.4 0-13.5-10.9-24.4-24.4-24.4-13.5 0-24.4 10.9-24.4 24.4-0.1 13.5 10.9 24.4 24.4 24.4zM507.1 265.2l-72.4 109.7-37.5-56-61.2 93.9h244.4l-73.3-147.6z" /></svg>