<svg class="icon" style="width: 1em; height: 1em;vertical-align: middle;fill: currentColor;overflow: hidden;" viewBox="0 0 1024 1024" version="1.1" xmlns="http://www.w3.org/2000/svg"><path d="M766.1 57.2c-0.8-0.8-1.6-1.4-2.4-2.2l-50-50c-2.8-2.8-8.2-5-12.1-5H286c-58.1 0-105.4 47.2-105.4 105.1v465.5h82.5V105.1c0-12.4 10.5-22.9 22.9-22.9h364.4v152c0 58 47.3 105.1 105.4 105.1h152.4v579.5c0 12.4-10.5 22.9-22.9 22.9H286c-12.4 0-22.9-10.5-22.9-22.9v-57.9h-82.5v57.9c0 58 47.3 105.1 105.4 105.1h599.2c58.1 0 105.4-47.2 105.4-105.1V288.4c0-3.9-2.2-9.3-5-12l-50.2-50c-0.8-0.8-1.5-1.6-2.3-2.4l-167-166.8z m-33.2 177V129.1c0-3.9 2.2-4.8 5-2.1l125.3 125c2.8 2.8 1.8 5-2.1 5H755.8c-12.4 0.1-22.9-10.4-22.9-22.8zM413.3 665.3H399v48.8h14c18.9 0 28.4-8.2 28.4-24.7 0-16.1-9.4-24.1-28.1-24.1zM679.7 598.5H68c-15.1 0-27.5 12.3-27.5 27.4v180.6c0 15.1 12.4 27.4 27.5 27.4h611.7c15.1 0 27.5-12.3 27.5-27.4V626c0-15.1-12.4-27.5-27.5-27.5zM331.4 791.6h-31.8v-91.8c0-8.5 0.4-19.1 1.3-31.9h-0.8c-2 9.7-3.5 16.2-4.7 19.4l-37.3 104.3h-25.7l-37.8-103.3c-0.9-2.5-2.5-9.3-4.8-20.4h-0.9c0.8 12.7 1.3 25.4 1.3 38.2v85.5h-29.1V640.3H208l32.6 91.4c2.7 7.6 4.6 14.6 5.6 21.3h0.7c2-8.3 4.1-15.4 6.3-21.5l32.7-91.2h45.6v151.3z m126.8-66.2c-11.4 9.3-25.6 13.8-42.6 13.4H399v52.7h-32.2V640.3h52.1c37.6 0 56.4 16 56.4 47.9 0 15.5-5.7 27.9-17.1 37.2z m117.6 56.7c-10.5 8.1-24.5 12.1-42 12.1-15.6 0-28.1-2.6-37.6-7.7v-27.8c10.1 7.6 21.9 11.3 35.3 11.3 8.5 0 15.3-1.9 20.3-5.7 5-3.8 7.5-9.1 7.5-16.1 0-7.2-3-12.6-8.9-16.4-6-3.8-14.3-5.7-25-5.7h-13.5v-24.3h12.4c20.3 0 30.5-6.8 30.5-20.5 0-12.9-7.8-19.3-23.3-19.3-10.2 0-20 3.3-29.6 10v-26.1c10.4-5.4 22.7-8.1 36.8-8.1 14.3 0 25.9 3.3 34.9 9.9 8.9 6.6 13.4 15.8 13.4 27.5 0 19.8-10 32.2-30.1 37.3v0.5c10.5 1.2 19 5 25.3 11.6s9.5 14.5 9.5 23.9c-0.1 14.3-5.4 25.5-15.9 33.6zM582.1 140.8l-153 46.8c-18.5 5.3-33.6 24.6-33.6 43.1V392.1s-11.1-7.5-35.8-4c-36.3 5.2-65.7 33-65.7 62.2s29.4 47.1 65.7 41.9c36.3-5.1 62.9-32.1 62.9-61.3V293.1c0-13 15.6-18.5 15.6-18.5l135.3-42.4s15-5 15 8.8V351.7s-13.8-7.9-38.5-4.9c-36.3 4.4-65.7 31.6-65.7 60.8 0 29.2 29.4 47.7 65.7 43.3 36.3-4.4 65.7-31.6 65.7-60.8V164.8c0-18.6-15-29.3-33.6-24z" /></svg>