<svg class="icon" style="width: 1em; height: 1em;vertical-align: middle;fill: currentColor;overflow: hidden;" viewBox="0 0 1024 1024" version="1.1" xmlns="http://www.w3.org/2000/svg"><path d="M766.1 57.2c-0.8-0.8-1.6-1.4-2.4-2.2l-50-50c-2.8-2.8-8.2-5-12.1-5H286c-58.1 0-105.4 47.2-105.4 105.1v465.5h82.5V105.1c0-12.4 10.5-22.9 22.9-22.9h364.4v152c0 58 47.3 105.1 105.4 105.1h152.4v579.5c0 12.4-10.5 22.9-22.9 22.9H286c-12.4 0-22.9-10.5-22.9-22.9v-57.9h-82.5v57.9c0 58 47.3 105.1 105.4 105.1h599.2c58.1 0 105.4-47.2 105.4-105.1V288.4c0-3.9-2.2-9.3-5-12l-50.2-50c-0.8-0.8-1.5-1.6-2.3-2.4l-167-166.8z m-33.2 177V129.1c0-3.9 2.2-4.8 5-2.1l125.3 125c2.8 2.8 1.8 5-2.1 5H755.8c-12.4 0.1-22.9-10.4-22.9-22.8zM221.6 665.7c-12.6 0-22.6 4.7-29.8 14.1-7.3 9.4-10.9 21.5-10.9 36.4 0 14.7 3.5 26.7 10.6 36.1 7.1 9.3 16.8 14 29.2 14 12.6 0 22.5-4.5 29.5-13.4 7-9 10.5-21 10.5-36.1 0-15.8-3.4-28.2-10.3-37.4-6.7-9.1-16.4-13.7-28.8-13.7zM679.7 598.5H68c-15.1 0-27.5 12.3-27.5 27.4v180.6c0 15.1 12.4 27.4 27.5 27.4h611.7c15.1 0 27.5-12.3 27.5-27.4V626c0-15.1-12.4-27.5-27.5-27.5zM274 772.2c-13.7 14.7-31.7 22-53.9 22-21.7 0-39.3-7.1-52.8-21.3-13.5-14.2-20.3-32.5-20.3-54.9 0-23.7 6.9-43 20.8-57.9 13.8-14.9 32.1-22.3 54.8-22.3 21.6 0 39 7.2 52.2 21.6 13.2 14.4 19.8 32.9 19.8 55.5 0 23.5-6.9 42.6-20.6 57.3z m169.1 9.2c-14.8 8.5-32.9 12.8-54.5 12.8-24.1 0-43.1-6.8-57-20.3-13.9-13.5-20.9-32.1-20.9-55.6 0-23.8 7.7-43.2 23-58.2 15.3-14.9 35.5-22.4 60.6-22.4 16.1 0 30.2 2.3 42.3 6.8v30.6c-11.7-6.8-26-10.3-43-10.3-14.6 0-26.4 4.8-35.4 14.3s-13.6 22-13.6 37.6c0 15.8 4.1 28.2 12.3 37 8.2 8.9 19.3 13.3 33.4 13.3 8.4 0 15.3-1.3 20.6-3.9V732h-30.6v-25.9h62.8v75.3z m153 0c-14.8 8.5-32.9 12.8-54.5 12.8-24.1 0-43.1-6.8-57-20.3-13.9-13.5-20.9-32.1-20.9-55.6 0-23.8 7.7-43.2 23-58.2 15.3-14.9 35.5-22.4 60.6-22.4 16.1 0 30.2 2.3 42.3 6.8v30.6c-11.7-6.8-26-10.3-43-10.3-14.6 0-26.4 4.8-35.4 14.3s-13.6 22-13.6 37.6c0 15.8 4.1 28.2 12.3 37 8.2 8.9 19.3 13.3 33.4 13.3 8.4 0 15.3-1.3 20.6-3.9V732h-30.6v-25.9h62.8v75.3zM582.1 140.8l-153 46.8c-18.5 5.3-33.6 24.6-33.6 43.1V392.1s-11.1-7.5-35.8-4c-36.3 5.2-65.7 33-65.7 62.2s29.4 47.1 65.7 41.9c36.3-5.1 62.9-32.1 62.9-61.3V293.1c0-13 15.6-18.5 15.6-18.5l135.3-42.4s15-5 15 8.8V351.7s-13.8-7.9-38.5-4.9c-36.3 4.4-65.7 31.6-65.7 60.8 0 29.2 29.4 47.7 65.7 43.3 36.3-4.4 65.7-31.6 65.7-60.8V164.8c0-18.6-15-29.3-33.6-24z" /></svg>