<svg class="icon" style="width: 1em; height: 1em;vertical-align: middle;fill: currentColor;overflow: hidden;" viewBox="0 0 1024 1024" version="1.1" xmlns="http://www.w3.org/2000/svg"><path d="M766.1 57.2c-0.8-0.8-1.6-1.4-2.4-2.2l-50-50c-2.8-2.8-8.2-5-12.1-5H286c-58.1 0-105.4 47.2-105.4 105.1v465.5h82.5V105.1c0-12.4 10.5-22.9 22.9-22.9h364.4v152c0 58 47.3 105.1 105.4 105.1h152.4v579.5c0 12.4-10.5 22.9-22.9 22.9H286c-12.4 0-22.9-10.5-22.9-22.9v-57.9h-82.5v57.9c0 58 47.3 105.1 105.4 105.1h599.2c58.1 0 105.4-47.2 105.4-105.1V288.4c0-3.9-2.2-9.3-5-12l-50.2-50c-0.8-0.8-1.5-1.6-2.3-2.4l-167-166.8z m-33.2 177V129.1c0-3.9 2.2-4.8 5-2.1l125.3 125c2.8 2.8 1.8 5-2.1 5H755.8c-12.4 0.1-22.9-10.4-22.9-22.8zM679.7 598.5H68c-15.1 0-27.5 12.3-27.5 27.4v180.6c0 15.1 12.4 27.4 27.5 27.4h611.7c15.1 0 27.5-12.3 27.5-27.4V626c0-15.1-12.4-27.5-27.5-27.5z m-400 126.9c-11.4 9.3-25.6 13.8-42.6 13.4h-16.6v52.7h-32.2V640.3h52.1c37.6 0 56.4 16 56.4 47.9-0.1 15.5-5.7 27.9-17.1 37.2z m147.9-50.7c-10.2-6-21.8-9-34.8-9-14.8 0-26.6 4.7-35.4 14.2-8.9 9.4-13.3 21.8-13.3 37 0 14.8 4.2 26.8 12.6 35.8 8.4 9 19.8 13.6 34.1 13.6 13.5 0 25.7-3.3 36.8-9.8v29.6c-11 5.4-25.4 8.1-43.1 8.1-22.8 0-40.9-6.8-54.2-20.5-13.4-13.6-20.1-31.8-20.1-54.5 0-23.9 7.5-43.4 22.4-58.6 14.9-15.2 34.2-22.8 57.9-22.8 14.8 0 27.1 1.9 37.1 5.8v31.1z m110 116.9l-27.1-50.2c-1-1.8-2-5.1-3-9.9h-0.5c-0.5 2.3-1.7 5.7-3.5 10.2l-27.2 49.9h-38.6l48.5-75.7-44.3-75.6h39.3l22.6 46.3c1.8 3.8 3.4 7.9 4.7 12.5h0.4c1.4-4.1 3-8.4 5-13l24.9-45.8h36l-45.7 75 46.9 76.3h-38.4zM234.7 665.3h-14.3v48.8h14c18.9 0 28.4-8.2 28.4-24.7 0.1-16.1-9.3-24.1-28.1-24.1zM592.6 168.5H323.8c-13.5 0-24.4 10.9-24.4 24.4v244.4c0 13.5 10.9 24.4 24.4 24.4h268.8c13.5 0 24.4-10.9 24.4-24.4V192.9c0-13.5-10.9-24.4-24.4-24.4z m0 268.8H323.8V192.9h268.8v244.4zM384.9 278.4c13.5 0 24.4-10.9 24.4-24.4 0-13.5-10.9-24.4-24.4-24.4-13.5 0-24.4 10.9-24.4 24.4-0.1 13.5 10.9 24.4 24.4 24.4zM507.1 265.2l-72.4 109.7-37.5-56-61.2 93.9h244.4l-73.3-147.6z" /></svg>