<svg class="icon" style="width: 1em; height: 1em;vertical-align: middle;fill: currentColor;overflow: hidden;" viewBox="0 0 1024 1024" version="1.1" xmlns="http://www.w3.org/2000/svg"><path d="M766.1 57.2c-0.8-0.8-1.6-1.4-2.4-2.2l-50-50c-2.8-2.8-8.2-5-12.1-5H286c-58.1 0-105.4 47.2-105.4 105.1v465.5h82.5V105.1c0-12.4 10.5-22.9 22.9-22.9h364.4v152c0 58 47.3 105.1 105.4 105.1h152.4v579.5c0 12.4-10.5 22.9-22.9 22.9H286c-12.4 0-22.9-10.5-22.9-22.9v-57.9h-82.5v57.9c0 58 47.3 105.1 105.4 105.1h599.2c58.1 0 105.4-47.2 105.4-105.1V288.4c0-3.9-2.2-9.3-5-12l-50.2-50c-0.8-0.8-1.5-1.6-2.3-2.4l-167-166.8z m-33.2 177V129.1c0-3.9 2.2-4.8 5-2.1l125.3 125c2.8 2.8 1.8 5-2.1 5H755.8c-12.4 0.1-22.9-10.4-22.9-22.8zM661.1 385.4C619.7 364.2 557.3 371 557.3 371s-20.5-20.5-38-40.2c-17.5-19.7-29.9-48.2-29.9-48.2 42.4-121.6 13.3-145.2-11.7-142.4-19.7 2.2-39.4 25.2-37.3 58.1 2.2 32.9 27.4 90.9 27.4 90.9s-12.1 34-25.2 60-38.2 56.7-38.2 56.7-62.3 12.6-91 45.5c-33.4 38.1-4.4 70.1 32.9 58.1 37.3-12.1 76.1-86.6 76.1-86.6s36.7-15 68.3-19.9c33.4-5.2 53.6-5.7 53.6-5.7s33.2 57.5 86.9 69.5c53.5 11.9 75.5-58.2 29.9-81.4zM361 472.7c-10.1 11.8-26.3 20.3-34 15.9-4.6-2.6-2.5-14.2 12.3-28.2s47.4-23.6 47.4-23.6-17.5 26.4-25.7 35.9z m100.5-278.5c-1.4-30 17.6-30.7 17.6-30.7 17.9 4.8 10.7 38.9 10.3 50.4-0.4 11.5-12.5 40.9-12.5 40.9s-14.5-40-15.4-60.6z m23 187.6c-12.6 2.6-45.2 10.7-45.2 10.7s10.8-12.6 23-34.8c12.2-22.2 17.9-43.8 17.9-43.8s17.1 28.1 23.6 36.7c6.4 8.5 22 26 22 26-7.4 0.4-26.8 2.2-41.3 5.2z m174.3 48.4c-4 11.7-23 14.2-34 5.8-12.2-9.4-46.3-41.9-46.3-41.9s17.4 0.8 34.6 2.4c17.3 1.7 52.8 13 45.7 33.7zM237.1 665.3h-14.3v48.8h14c18.9 0 28.4-8.2 28.4-24.7 0.1-16.1-9.3-24.1-28.1-24.1zM407.3 679.3c-9.1-8.4-21-12.6-35.5-12.6h-17.5v98.5h17.6c15.3 0 27.3-4.6 36-13.7s13.1-21.5 13.1-37c0-15-4.5-26.7-13.7-35.2zM679.7 598.5H68c-15.1 0-27.5 12.3-27.5 27.4v180.6c0 15.1 12.4 27.4 27.5 27.4h611.7c15.1 0 27.5-12.3 27.5-27.4V626c0-15.1-12.4-27.5-27.5-27.5zM282.1 725.4c-11.4 9.3-25.6 13.8-42.6 13.4h-16.6v52.7h-32.2V640.3h52.1c37.6 0 56.4 16 56.4 47.9-0.1 15.5-5.7 27.9-17.1 37.2z m150.2 44.9c-15 14.2-34.4 21.2-58.2 21.2h-52V640.3h52.2c53.7 0 80.6 24.6 80.6 73.7 0 23.4-7.5 42.2-22.6 56.3z m130-64.8v26.4h-49.7v59.7h-32.2V640.3h86.2v26.4h-54v38.9h49.7z" /></svg>