<svg class="icon" style="width: 1em; height: 1em;vertical-align: middle;fill: currentColor;overflow: hidden;" viewBox="0 0 1024 1024" version="1.1" xmlns="http://www.w3.org/2000/svg"><path d="M766.1 57.2c-0.8-0.8-1.6-1.4-2.4-2.2l-50-50c-2.8-2.8-8.2-5-12.1-5H286c-58.1 0-105.4 47.2-105.4 105.1v465.5h82.5V105.1c0-12.4 10.5-22.9 22.9-22.9h364.4v152c0 58 47.3 105.1 105.4 105.1h152.4v579.5c0 12.4-10.5 22.9-22.9 22.9H286c-12.4 0-22.9-10.5-22.9-22.9v-57.9h-82.5v57.9c0 58 47.3 105.1 105.4 105.1h599.2c58.1 0 105.4-47.2 105.4-105.1V288.4c0-3.9-2.2-9.3-5-12l-50.2-50c-0.8-0.8-1.5-1.6-2.3-2.4l-167-166.8z m-33.2 177V129.1c0-3.9 2.2-4.8 5-2.1l125.3 125c2.8 2.8 1.8 5-2.1 5H755.8c-12.4 0.1-22.9-10.4-22.9-22.8zM751 479.3V532h-32.2V380.8h52.1c37.6 0 56.4 16 56.4 47.9 0 15.5-5.7 27.9-17 37.3-11.4 9.3-25.6 13.8-42.6 13.4l-16.7-0.1z m0-73.5v48.8h14c18.9 0 28.4-8.2 28.4-24.7 0-16.1-9.4-24.1-28.1-24.1H751zM462.1 310.3H627c0 90.4-73.8 163.8-164.9 163.8V310.3zM286.5 296.6c0-90.4 73.8-163.8 164.8-163.8s164.8 73.3 164.8 163.8H451.3v163.8c-91 0-164.8-73.3-164.8-163.8zM174 665.3h-14.3v48.8h14c18.9 0 28.4-8.2 28.4-24.7 0-16.1-9.4-24.1-28.1-24.1zM679.7 598.5H68c-15.1 0-27.5 12.3-27.5 27.4v180.6c0 15.1 12.4 27.4 27.5 27.4h611.7c15.1 0 27.5-12.3 27.5-27.4V626c0-15.1-12.4-27.5-27.5-27.5zM219 725.4c-11.4 9.3-25.6 13.8-42.6 13.4h-16.6v52.7h-32.2V640.3h52.1c37.6 0 56.4 16 56.4 47.9-0.1 15.5-5.8 27.9-17.1 37.2z m131.4 0c-11.4 9.3-25.6 13.8-42.6 13.4h-16.6v52.7H259V640.3h52c37.6 0 56.4 16 56.4 47.9 0.1 15.5-5.6 27.9-17 37.2z m144.4-58.7h-43.2v124.9h-32.3V666.7h-43.1v-26.4h118.6v26.4z m103.5 124.9l-27.1-50.2c-1-1.8-2-5.1-3-9.9h-0.4c-0.5 2.3-1.7 5.7-3.5 10.2L537 791.6h-38.6l48.5-75.7-44.3-75.6h39.3l22.6 46.3c1.8 3.8 3.4 7.9 4.7 12.5h0.4c1.4-4.1 3-8.4 5-13l24.9-45.8h36l-45.7 75 46.9 76.3h-38.4zM305.4 665.3h-14.3v48.8h14c18.9 0 28.4-8.2 28.4-24.7 0.1-16.1-9.3-24.1-28.1-24.1z" /></svg>