<svg class="icon" style="width: 1em; height: 1em;vertical-align: middle;fill: currentColor;overflow: hidden;" viewBox="0 0 1024 1024" version="1.1" xmlns="http://www.w3.org/2000/svg"><path d="M766.1 57.2c-0.8-0.8-1.6-1.4-2.4-2.2l-50-50c-2.8-2.8-8.2-5-12.1-5H286c-58.1 0-105.4 47.2-105.4 105.1v465.5h82.5V105.1c0-12.4 10.5-22.9 22.9-22.9h364.4v152c0 58 47.3 105.1 105.4 105.1h152.4v579.5c0 12.4-10.5 22.9-22.9 22.9H286c-12.4 0-22.9-10.5-22.9-22.9v-57.9h-82.5v57.9c0 58 47.3 105.1 105.4 105.1h599.2c58.1 0 105.4-47.2 105.4-105.1V288.4c0-3.9-2.2-9.3-5-12l-50.2-50c-0.8-0.8-1.5-1.6-2.3-2.4l-167-166.8z m-33.2 177V129.1c0-3.9 2.2-4.8 5-2.1l125.3 125c2.8 2.8 1.8 5-2.1 5H755.8c-12.4 0.1-22.9-10.4-22.9-22.8zM637.6 731.3c-4.6-3.5-11-5.3-19.4-5.3h-18.8v41.5h19.1c8.1 0 14.5-1.9 19.1-5.7 4.6-3.8 6.9-9 6.9-15.7 0-6.3-2.3-11.3-6.9-14.8zM632.1 696.5c4.2-3.5 6.3-8.4 6.3-14.7 0-11.6-8.5-17.4-25.4-17.4h-13.7v37.4h15.3c7.4-0.1 13.2-1.8 17.5-5.3zM679.7 598.5H68c-15.1 0-27.5 12.3-27.5 27.4v180.6c0 15.1 12.4 27.4 27.5 27.4h611.7c15.1 0 27.5-12.3 27.5-27.4V626c0-15.1-12.4-27.5-27.5-27.5zM166.5 791.6l-23.7-39.4c-4.9-8.1-8.9-13.4-12-15.7s-6.4-3.5-10-3.5H111v58.6H78.8V640.3h53c36 0 54 13.7 54 41 0 10.3-3 19.1-9 26.5-6 7.4-14.3 12.5-24.9 15.5v0.4c7 2.3 14.7 10 23.1 23l28.5 44.8h-37z m222.3 0H357v-91.8c0-8.5 0.4-19.1 1.3-31.9h-0.8c-2 9.7-3.5 16.2-4.7 19.4l-37.3 104.3h-25.7L252 688.3c-0.9-2.5-2.5-9.3-4.8-20.4h-0.9c0.8 12.7 1.3 25.4 1.3 38.2v85.5h-29.1V640.3h46.9l32.6 91.4c2.7 7.6 4.6 14.6 5.6 21.3h0.7c2-8.3 4.1-15.4 6.3-21.5l32.7-91.2h45.6v151.3z m107.2 0h-36.4l-51.9-151.3h34.8l32.7 106.9c1.6 5.3 2.6 10.3 3 14.9h0.6c0.5-4.8 1.6-9.9 3.3-15.3l32.7-106.5h33.7L496 791.6z m167.7-12.2c-9.8 8.1-23.1 12.2-40 12.2h-56.5V640.3h53.7c16.5 0 29.2 3.1 38.1 9.4s13.4 14.9 13.4 26c0 8.2-2.8 15.4-8.3 21.6-5.5 6.2-12.5 10.4-20.9 12.8v0.4c10.5 1.3 19.1 5.2 25.5 11.7 6.5 6.5 9.7 14.7 9.7 24.5-0.1 13.7-4.9 24.6-14.7 32.7zM127.5 664.8h-16.4v43.6h15.8c7.6 0 13.6-2.2 18.2-6.6 4.6-4.4 6.9-9.9 6.9-16.5 0-13.6-8.2-20.5-24.5-20.5zM421.6 341.2l79.3-39.6c7.3-3.6 7.3-14.1 0-17.7l-79.3-39.6c-6.6-3.3-14.3 1.5-14.3 8.9v79.3c-0.1 7.2 7.7 11.9 14.3 8.7z m164.1-167.5H327.8c-16.3 0-29.6 13.4-29.6 29.9v178.1c0 16.5 13.2 29.9 29.6 29.9h257.9c16.3 0 29.6-13.4 29.6-29.9V203.6c0-16.5-13.2-29.9-29.6-29.9zM357.6 381.8c0 5.5-4.2 10-10 10H328c-5.5 0-10-4.2-10-10v-19.6c0-5.5 4.2-10 10-10h19.6c5.5 0 10 4.2 10 10v19.6z m0-79.3c0 5.5-4.2 10-10 10H328c-5.5 0-10-4.2-10-10v-19.6c0-5.5 4.2-10 10-10h19.6c5.5 0 10 4.2 10 10v19.6z m0-79.3c0 5.5-4.2 10-10 10H328c-5.5 0-10-4.2-10-10v-19.6c0-5.5 4.2-10 10-10h19.6c5.5 0 10 4.2 10 10v19.6zM536 391.8H377.5V193.6H536v198.2z m59.5-10c0 5.5-4.2 10-10 10h-19.6c-5.5 0-10-4.2-10-10v-19.6c0-5.5 4.2-10 10-10h19.6c5.5 0 10 4.2 10 10v19.6z m0-79.3c0 5.5-4.2 10-10 10h-19.6c-5.5 0-10-4.2-10-10v-19.6c0-5.5 4.2-10 10-10h19.6c5.5 0 10 4.2 10 10v19.6z m0-79.3c0 5.5-4.2 10-10 10h-19.6c-5.5 0-10-4.2-10-10v-19.6c0-5.5 4.2-10 10-10h19.6c5.5 0 10 4.2 10 10v19.6z" /></svg>