<svg class="icon" style="width: 1em; height: 1em;vertical-align: middle;fill: currentColor;overflow: hidden;" viewBox="0 0 1024 1024" version="1.1" xmlns="http://www.w3.org/2000/svg"><path d="M766.1 57.2c-0.8-0.8-1.6-1.4-2.4-2.2l-50-50c-2.8-2.8-8.2-5-12.1-5H286c-58.1 0-105.4 47.2-105.4 105.1v465.5h82.5V105.1c0-12.4 10.5-22.9 22.9-22.9h364.4v152c0 58 47.3 105.1 105.4 105.1h152.4v579.5c0 12.4-10.5 22.9-22.9 22.9H286c-12.4 0-22.9-10.5-22.9-22.9v-57.9h-82.5v57.9c0 58 47.3 105.1 105.4 105.1h599.2c58.1 0 105.4-47.2 105.4-105.1V288.4c0-3.9-2.2-9.3-5-12l-50.2-50c-0.8-0.8-1.5-1.6-2.3-2.4l-167-166.8z m-33.2 177V129.1c0-3.9 2.2-4.8 5-2.1l125.3 125c2.8 2.8 1.8 5-2.1 5H755.8c-12.4 0.1-22.9-10.4-22.9-22.8zM679.7 598.5H68c-15.1 0-27.5 12.3-27.5 27.4v180.6c0 15.1 12.4 27.4 27.5 27.4h611.7c15.1 0 27.5-12.3 27.5-27.4V626c0-15.1-12.4-27.5-27.5-27.5zM280.5 782.8c-10.3 7.6-24.9 11.4-43.8 11.4-17.3 0-31.5-2.8-42.6-8.4v-32.3c12.2 10.1 26 15.1 41.5 15.1 8.8 0 15.4-1.5 19.8-4.5s6.6-6.9 6.6-11.7c0-4.1-1.8-8-5.3-11.6-3.5-3.6-12.8-8.6-27.8-14.8-23.6-10-35.4-24.6-35.4-43.8 0-14.1 5.4-25 16.1-32.8 10.7-7.8 24.9-11.7 42.5-11.7 14.8 0 27.2 1.9 37.2 5.8v30.3c-10.2-6.9-22-10.4-35.6-10.4-7.9 0-14.3 1.4-19 4.3-4.8 2.9-7.1 6.8-7.1 11.7 0 3.9 1.6 7.5 4.9 10.8 3.3 3.3 11.3 7.7 24.1 13.3 15 6.4 25.4 13.2 31 20.4 5.6 7.2 8.4 15.7 8.4 25.6-0.1 14.6-5.2 25.7-15.5 33.3z m128.5 8.8l-23.7-39.4c-4.9-8.1-8.9-13.4-12-15.7s-6.4-3.5-10-3.5h-9.8v58.6h-32.2V640.3h53c36 0 54 13.7 54 41 0 10.3-3 19.1-9 26.5-6 7.4-14.3 12.5-24.9 15.5v0.4c7 2.3 14.7 10 23.1 23l28.5 44.8h-37z m152-124.9h-43.2v124.9h-32.3V666.7h-43.1v-26.4H561v26.4zM369.9 664.8h-16.4v43.6h15.8c7.6 0 13.6-2.2 18.2-6.6s6.9-9.9 6.9-16.5c0.1-13.6-8.1-20.5-24.5-20.5zM591.2 177.9h-212c-10.4 0-19-8.6-19-19 0-10.5 8.5-19 19-19h212c10.4 0 19 8.6 19 19 0 10.5-8.6 19-19 19z m-145 48.5c0 10.5-8.5 19-19 19H320c-10.4 0-19-8.6-19-19 0-10.5 8.5-19 19-19h107.2c10.5-0.1 19 8.5 19 19z m-95.7 48.4h20.1c10.4 0 19 8.6 19 19 0 10.5-8.5 19-19 19h-20.1c-10.4 0-19-8.6-19-19 0-10.5 8.6-19 19-19z m129.6-29.4c-10.5 0-19-8.6-19-19 0-10.5 8.5-19 19-19h28.2c10.5 0 19 8.6 19 19 0 10.5-8.5 19-19 19h-28.2z m-46.6 29.4h132.9c10.4 0 19 8.6 19 19 0 10.5-8.5 19-19 19H433.5c-10.4 0-19-8.6-19-19 0-10.5 8.6-19 19-19z m-3 66h20.1c10.4 0 19 8.6 19 19 0 10.5-8.5 19-19 19h-20.1c-10.4 0-19-8.6-19-19 0-10.5 8.6-19 19-19z m83 0h132.9c10.4 0 19 8.6 19 19 0 10.5-8.5 19-19 19H513.5c-10.5 0-19-8.6-19-19 0-10.5 8.6-19 19-19z" /></svg>