<svg class="icon" style="width: 1em; height: 1em;vertical-align: middle;fill: currentColor;overflow: hidden;" viewBox="0 0 1024 1024" version="1.1" xmlns="http://www.w3.org/2000/svg"><path d="M766.1 57.2c-0.8-0.8-1.6-1.4-2.4-2.2l-50-50c-2.8-2.8-8.2-5-12.1-5H286c-58.1 0-105.4 47.2-105.4 105.1v465.5h82.5V105.1c0-12.4 10.5-22.9 22.9-22.9h364.4v152c0 58 47.3 105.1 105.4 105.1h152.4v579.5c0 12.4-10.5 22.9-22.9 22.9H286c-12.4 0-22.9-10.5-22.9-22.9v-57.9h-82.5v57.9c0 58 47.3 105.1 105.4 105.1h599.2c58.1 0 105.4-47.2 105.4-105.1V288.4c0-3.9-2.2-9.3-5-12l-50.2-50c-0.8-0.8-1.5-1.6-2.3-2.4l-167-166.8z m-33.2 177V129.1c0-3.9 2.2-4.8 5-2.1l125.3 125c2.8 2.8 1.8 5-2.1 5H755.8c-12.4 0.1-22.9-10.4-22.9-22.8zM679.7 598.5H68c-15.1 0-27.5 12.3-27.5 27.4v180.6c0 15.1 12.4 27.4 27.5 27.4h611.7c15.1 0 27.5-12.3 27.5-27.4V626c0-15.1-12.4-27.5-27.5-27.5zM264.8 782.8c-10.3 7.6-24.9 11.4-43.8 11.4-17.3 0-31.5-2.8-42.6-8.4v-32.3c12.2 10.1 26 15.1 41.5 15.1 8.8 0 15.4-1.5 19.8-4.5s6.6-6.9 6.6-11.7c0-4.1-1.8-8-5.3-11.6-3.5-3.6-12.8-8.6-27.8-14.8-23.6-10-35.4-24.6-35.4-43.8 0-14.1 5.4-25 16.1-32.8 10.7-7.8 24.9-11.7 42.5-11.7 14.8 0 27.2 1.9 37.2 5.8v30.3c-10.2-6.9-22-10.4-35.6-10.4-7.9 0-14.3 1.4-19 4.3-4.8 2.9-7.1 6.8-7.1 11.7 0 3.9 1.6 7.5 4.9 10.8 3.3 3.3 11.3 7.7 24.1 13.3 15 6.4 25.4 13.2 31 20.4 5.6 7.2 8.4 15.7 8.4 25.6-0.1 14.6-5.2 25.7-15.5 33.3z m112.7 8.8H341l-51.9-151.3h34.8l32.7 106.9c1.6 5.3 2.6 10.3 3 14.9h0.6c0.5-4.8 1.6-9.9 3.3-15.3l32.7-106.5H430l-52.5 151.3z m135.3 2.6c-24.1 0-43.1-6.8-57-20.3-13.9-13.5-20.9-32.1-20.9-55.6 0-23.8 7.7-43.2 23-58.2 15.3-14.9 35.5-22.4 60.6-22.4 16.1 0 30.2 2.3 42.3 6.8v30.6c-11.7-6.8-26-10.3-43-10.3-14.6 0-26.4 4.8-35.4 14.3s-13.6 22-13.6 37.6c0 15.8 4.1 28.2 12.3 37 8.2 8.9 19.3 13.3 33.4 13.3 8.4 0 15.3-1.3 20.6-3.9V732h-30.6v-25.9h62.8v75.2c-14.8 8.6-32.9 12.9-54.5 12.9zM592.6 168.5H323.8c-13.5 0-24.4 10.9-24.4 24.4v244.4c0 13.5 10.9 24.4 24.4 24.4h268.8c13.5 0 24.4-10.9 24.4-24.4V192.9c0-13.5-10.9-24.4-24.4-24.4z m0 268.8H323.8V192.9h268.8v244.4zM384.9 278.4c13.5 0 24.4-10.9 24.4-24.4 0-13.5-10.9-24.4-24.4-24.4-13.5 0-24.4 10.9-24.4 24.4-0.1 13.5 10.9 24.4 24.4 24.4zM507.1 265.2l-72.4 109.7-37.5-56-61.2 93.9h244.4l-73.3-147.6z" /></svg>