<svg class="icon" style="width: 1em; height: 1em;vertical-align: middle;fill: currentColor;overflow: hidden;" viewBox="0 0 1024 1024" version="1.1" xmlns="http://www.w3.org/2000/svg"><path d="M766.1 57.2c-0.8-0.8-1.6-1.4-2.4-2.2l-50-50c-2.8-2.8-8.2-5-12.1-5H286c-58.1 0-105.4 47.2-105.4 105.1v465.5h82.5V105.1c0-12.4 10.5-22.9 22.9-22.9h364.4v152c0 58 47.3 105.1 105.4 105.1h152.4v579.5c0 12.4-10.5 22.9-22.9 22.9H286c-12.4 0-22.9-10.5-22.9-22.9v-57.9h-82.5v57.9c0 58 47.3 105.1 105.4 105.1h599.2c58.1 0 105.4-47.2 105.4-105.1V288.4c0-3.9-2.2-9.3-5-12l-50.2-50c-0.8-0.8-1.5-1.6-2.3-2.4l-167-166.8z m-33.2 177V129.1c0-3.9 2.2-4.8 5-2.1l125.3 125c2.8 2.8 1.8 5-2.1 5H755.8c-12.4 0.1-22.9-10.4-22.9-22.8zM679.7 598.5H68c-15.1 0-27.5 12.3-27.5 27.4v180.6c0 15.1 12.4 27.4 27.5 27.4h611.7c15.1 0 27.5-12.3 27.5-27.4V626c0-15.1-12.4-27.5-27.5-27.5zM247.2 782.8c-10.3 7.6-24.9 11.4-43.8 11.4-17.3 0-31.5-2.8-42.6-8.4v-32.3c12.2 10.1 26 15.1 41.5 15.1 8.8 0 15.4-1.5 19.8-4.5s6.6-6.9 6.6-11.7c0-4.1-1.8-8-5.3-11.6-3.5-3.6-12.8-8.6-27.8-14.8-23.6-10-35.4-24.6-35.4-43.8 0-14.1 5.4-25 16.1-32.8 10.7-7.8 24.9-11.7 42.5-11.7 14.8 0 27.2 1.9 37.2 5.8v30.3c-10.2-6.9-22-10.4-35.6-10.4-7.9 0-14.3 1.4-19 4.3-4.8 2.9-7.1 6.8-7.1 11.7 0 3.9 1.6 7.5 4.9 10.8 3.3 3.3 11.3 7.7 24.1 13.3 15 6.4 25.4 13.2 31 20.4 5.6 7.2 8.4 15.7 8.4 25.6 0 14.6-5.2 25.7-15.5 33.3z m196.3 8.8h-35.8L381.9 693c-1.4-5.3-2.2-10.9-2.4-16.7h-0.4c-0.7 6.8-1.6 12.3-2.7 16.7L350 791.6h-37.2l-40.3-151.3h35.4l22.5 102.5c1 4.5 1.7 10.2 2.1 17h0.7c0.3-5.3 1.3-11.2 3-17.5l28.1-102.1h34.3L424 743.6c1 4.1 1.9 9.4 2.4 16h0.5c0.3-5.7 1-11.2 2.2-16.6l22-102.7h32.7l-40.3 151.3z m141.7-86.1v26.4h-49.7v59.7h-32.2V640.3h86.2v26.4h-54v38.9h49.7zM421.6 341.2l79.3-39.6c7.3-3.6 7.3-14.1 0-17.7l-79.3-39.6c-6.6-3.3-14.3 1.5-14.3 8.9v79.3c-0.1 7.2 7.7 11.9 14.3 8.7z m164.1-167.5H327.8c-16.3 0-29.6 13.4-29.6 29.9v178.1c0 16.5 13.2 29.9 29.6 29.9h257.9c16.3 0 29.6-13.4 29.6-29.9V203.6c0-16.5-13.2-29.9-29.6-29.9zM357.6 381.8c0 5.5-4.2 10-10 10H328c-5.5 0-10-4.2-10-10v-19.6c0-5.5 4.2-10 10-10h19.6c5.5 0 10 4.2 10 10v19.6z m0-79.3c0 5.5-4.2 10-10 10H328c-5.5 0-10-4.2-10-10v-19.6c0-5.5 4.2-10 10-10h19.6c5.5 0 10 4.2 10 10v19.6z m0-79.3c0 5.5-4.2 10-10 10H328c-5.5 0-10-4.2-10-10v-19.6c0-5.5 4.2-10 10-10h19.6c5.5 0 10 4.2 10 10v19.6zM536 391.8H377.5V193.6H536v198.2z m59.5-10c0 5.5-4.2 10-10 10h-19.6c-5.5 0-10-4.2-10-10v-19.6c0-5.5 4.2-10 10-10h19.6c5.5 0 10 4.2 10 10v19.6z m0-79.3c0 5.5-4.2 10-10 10h-19.6c-5.5 0-10-4.2-10-10v-19.6c0-5.5 4.2-10 10-10h19.6c5.5 0 10 4.2 10 10v19.6z m0-79.3c0 5.5-4.2 10-10 10h-19.6c-5.5 0-10-4.2-10-10v-19.6c0-5.5 4.2-10 10-10h19.6c5.5 0 10 4.2 10 10v19.6z" /></svg>