<svg class="icon" style="width: 1em; height: 1em;vertical-align: middle;fill: currentColor;overflow: hidden;" viewBox="0 0 1024 1024" version="1.1" xmlns="http://www.w3.org/2000/svg"><path d="M766.1 57.2c-0.8-0.8-1.6-1.4-2.4-2.2l-50-50c-2.8-2.8-8.2-5-12.1-5H286c-58.1 0-105.4 47.2-105.4 105.1v465.5h82.5V105.1c0-12.4 10.5-22.9 22.9-22.9h364.4v152c0 58 47.3 105.1 105.4 105.1h152.4v579.5c0 12.4-10.5 22.9-22.9 22.9H286c-12.4 0-22.9-10.5-22.9-22.9v-57.9h-82.5v57.9c0 58 47.3 105.1 105.4 105.1h599.2c58.1 0 105.4-47.2 105.4-105.1V288.4c0-3.9-2.2-9.3-5-12l-50.2-50c-0.8-0.8-1.5-1.6-2.3-2.4l-167-166.8z m-33.2 177V129.1c0-3.9 2.2-4.8 5-2.1l125.3 125c2.8 2.8 1.8 5-2.1 5H755.8c-12.4 0.1-22.9-10.4-22.9-22.8zM358.9 666.4h-0.9c-0.4 4.4-1.3 8.7-2.6 12.8L338.1 732h40.3l-17.2-52.4c-1.1-3.4-1.8-7.8-2.3-13.2zM500.3 664.8h-16.4v43.6h15.8c7.6 0 13.6-2.2 18.2-6.6s6.9-9.9 6.9-16.5c0-13.6-8.1-20.5-24.5-20.5zM679.7 598.5H68c-15.1 0-27.5 12.3-27.5 27.4v180.6c0 15.1 12.4 27.4 27.5 27.4h611.7c15.1 0 27.5-12.3 27.5-27.4V626c0-15.1-12.4-27.5-27.5-27.5zM252.6 791.6h-32.3V666.7h-43.1v-26.4h118.6v26.4h-43.2v124.9z m144.8 0l-11.3-34.7h-55L320 791.6h-35l55.4-151.3h37.9l54.3 151.3h-35.2z m142 0l-23.7-39.4c-4.9-8.1-8.9-13.4-12-15.7s-6.4-3.5-10-3.5h-9.8v58.6h-32.2V640.3h53c36 0 54 13.7 54 41 0 10.3-3 19.1-9 26.5-6 7.4-14.3 12.5-24.9 15.5v0.4c7 2.3 14.7 10 23.1 23l28.5 44.8h-37zM468.4 81.5h71v47.4h-71zM397.4 128.9h71v47.3h-71zM468.4 176.2h71v47.3h-71zM397.4 223.5h71v47.3h-71zM468.4 270.8h71v47.3h-71zM397.4 318.1h71v47.3h-71zM468.4 365.4h71v47.3h-71zM397.4 412.7h142V460h-142zM397.4 460h15.1v47.3h-15.1zM523.7 460h15.7v47.3h-15.7zM539.4 543.1c0 13.1-11 11.5-24.5 11.5H422c-13.6 0-24.5 1.7-24.5-11.3V531v-23.6h141.9v35.7z" /></svg>