<svg class="icon" style="width: 1em; height: 1em;vertical-align: middle;fill: currentColor;overflow: hidden;" viewBox="0 0 1024 1024" version="1.1" xmlns="http://www.w3.org/2000/svg"><path d="M107.1 569.4h82.4v297h-82.4M912.1 276.3l-50.2-50c-0.8-0.8-1.5-1.6-2.3-2.4l-167-166.7c-0.8-0.8-1.6-1.4-2.4-2.2l-50-50c-2.8-2.8-8.2-5-12.1-5H212.6c-58.1 0-105.4 47.2-105.4 105.1v465.5h82.5V105.1c0-12.4 10.5-22.9 22.9-22.9H577v152c0 58 47.3 105.1 105.4 105.1h152.4v579.5c0 12.4-10.5 22.9-22.9 22.9H212.5c-12.4 0-22.9-10.5-22.9-22.9v-57.9h-82.5v57.9c0 58 47.3 105.1 105.4 105.1h599.2c58.1 0 105.4-47.2 105.4-105.1V288.4c0-3.9-2.2-9.3-5-12.1z m-124.5-19.2H682.3c-12.4 0-22.9-10.5-22.9-22.9V129.1c0-3.9 2.2-4.8 5-2.1l125.3 125c2.7 2.8 1.8 5.1-2.1 5.1zM635.2 434.9c0 23.7-5.5 45.6-16.4 65.6-10.9 20.1-25.5 37.4-43.8 52-18.2 14.6-31 29.2-38.3 43.8-7.3 14.6-10.9 24.6-10.9 30.1v19.1h-49.2v-27.3c0-16.4 4.1-32.3 12.3-47.9 8.2-15.5 22.3-32.3 42.4-50.6 14.6-12.7 24.6-26 30.1-39.6s8.2-26.9 8.2-39.6c0-23.7-5.5-41.4-16.4-53.3-10.9-11.8-26.4-17.8-46.5-17.8s-36.9 7.8-50.6 23.2c-13.7 15.5-20.5 40.6-20.5 75.2h-62.9c1.8-51 15.5-88.9 41-113.5 25.5-24.6 56.5-36.9 93-36.9 40.1 0 71.5 10.9 94.3 32.8 22.8 21.8 34.2 50.1 34.2 84.7zM531.3 790.3h-60.2v-65.6h60.2v65.6z" /></svg>