<svg class="icon" style="width: 1em; height: 1em;vertical-align: middle;fill: currentColor;overflow: hidden;" viewBox="0 0 1024 1024" version="1.1" xmlns="http://www.w3.org/2000/svg"><path d="M766.1 57.2c-0.8-0.8-1.6-1.4-2.4-2.2l-50-50c-2.8-2.8-8.2-5-12.1-5H286c-58.1 0-105.4 47.2-105.4 105.1v465.5h82.5V105.1c0-12.4 10.5-22.9 22.9-22.9h364.4v152c0 58 47.3 105.1 105.4 105.1h152.4v579.5c0 12.4-10.5 22.9-22.9 22.9H286c-12.4 0-22.9-10.5-22.9-22.9v-57.9h-82.5v57.9c0 58 47.3 105.1 105.4 105.1h599.2c58.1 0 105.4-47.2 105.4-105.1V288.4c0-3.9-2.2-9.3-5-12l-50.2-50c-0.8-0.8-1.5-1.6-2.3-2.4l-167-166.8z m-33.2 177V129.1c0-3.9 2.2-4.8 5-2.1l125.3 125c2.8 2.8 1.8 5-2.1 5H755.8c-12.4 0.1-22.9-10.4-22.9-22.8zM541 696.5c4.2-3.5 6.3-8.4 6.3-14.7 0-11.6-8.5-17.4-25.4-17.4h-13.7v37.4h15.3c7.5-0.1 13.3-1.8 17.5-5.3zM546.6 731.3c-4.6-3.5-11-5.3-19.4-5.3h-18.8v41.5h19.1c8.1 0 14.5-1.9 19.1-5.7 4.6-3.8 6.9-9 6.9-15.7-0.1-6.3-2.4-11.3-6.9-14.8zM377.5 665.7c-12.6 0-22.6 4.7-29.8 14.1-7.3 9.4-10.9 21.5-10.9 36.4 0 14.7 3.5 26.7 10.6 36.1 7.1 9.3 16.8 14 29.2 14 12.6 0 22.5-4.5 29.5-13.4 7-9 10.5-21 10.5-36.1 0-15.8-3.4-28.2-10.3-37.4-6.7-9.1-16.4-13.7-28.8-13.7zM679.7 598.5H68c-15.1 0-27.5 12.3-27.5 27.4v180.6c0 15.1 12.4 27.4 27.5 27.4h611.7c15.1 0 27.5-12.3 27.5-27.4V626c0-15.1-12.4-27.5-27.5-27.5zM241.8 791.6h-36.4l-51.9-151.3h34.8L221 747.2c1.6 5.3 2.6 10.3 3 14.9h0.6c0.5-4.8 1.6-9.9 3.3-15.3l32.7-106.5h33.7l-52.5 151.3z m188.1-19.4c-13.7 14.7-31.7 22-53.9 22-21.7 0-39.3-7.1-52.8-21.3-13.5-14.2-20.3-32.5-20.3-54.9 0-23.7 6.9-43 20.8-57.9 13.8-14.9 32.1-22.3 54.8-22.3 21.6 0 39 7.2 52.2 21.6 13.2 14.4 19.8 32.9 19.8 55.5 0 23.5-6.9 42.6-20.6 57.3z m142.7 7.2c-9.8 8.1-23.1 12.2-40 12.2H476V640.3h53.7c16.5 0 29.2 3.1 38.1 9.4s13.4 14.9 13.4 26c0 8.2-2.8 15.4-8.3 21.6-5.5 6.2-12.5 10.4-20.9 12.8v0.4c10.5 1.3 19.1 5.2 25.5 11.7 6.5 6.5 9.7 14.7 9.7 24.5 0.1 13.7-4.8 24.6-14.6 32.7zM421.6 341.2l79.3-39.6c7.3-3.6 7.3-14.1 0-17.7l-79.3-39.6c-6.6-3.3-14.3 1.5-14.3 8.9v79.3c-0.1 7.2 7.7 11.9 14.3 8.7z m164.1-167.5H327.8c-16.3 0-29.6 13.4-29.6 29.9v178.1c0 16.5 13.2 29.9 29.6 29.9h257.9c16.3 0 29.6-13.4 29.6-29.9V203.6c0-16.5-13.2-29.9-29.6-29.9zM357.6 381.8c0 5.5-4.2 10-10 10H328c-5.5 0-10-4.2-10-10v-19.6c0-5.5 4.2-10 10-10h19.6c5.5 0 10 4.2 10 10v19.6z m0-79.3c0 5.5-4.2 10-10 10H328c-5.5 0-10-4.2-10-10v-19.6c0-5.5 4.2-10 10-10h19.6c5.5 0 10 4.2 10 10v19.6z m0-79.3c0 5.5-4.2 10-10 10H328c-5.5 0-10-4.2-10-10v-19.6c0-5.5 4.2-10 10-10h19.6c5.5 0 10 4.2 10 10v19.6zM536 391.8H377.5V193.6H536v198.2z m59.5-10c0 5.5-4.2 10-10 10h-19.6c-5.5 0-10-4.2-10-10v-19.6c0-5.5 4.2-10 10-10h19.6c5.5 0 10 4.2 10 10v19.6z m0-79.3c0 5.5-4.2 10-10 10h-19.6c-5.5 0-10-4.2-10-10v-19.6c0-5.5 4.2-10 10-10h19.6c5.5 0 10 4.2 10 10v19.6z m0-79.3c0 5.5-4.2 10-10 10h-19.6c-5.5 0-10-4.2-10-10v-19.6c0-5.5 4.2-10 10-10h19.6c5.5 0 10 4.2 10 10v19.6z" /></svg>