<svg class="icon" style="width: 1em; height: 1em;vertical-align: middle;fill: currentColor;overflow: hidden;" viewBox="0 0 1024 1024" version="1.1" xmlns="http://www.w3.org/2000/svg"><path d="M766.1 57.2c-0.8-0.8-1.6-1.4-2.4-2.2l-50-50c-2.8-2.8-8.2-5-12.1-5H286c-58.1 0-105.4 47.2-105.4 105.1v465.5h82.5V105.1c0-12.4 10.5-22.9 22.9-22.9h364.4v152c0 58 47.3 105.1 105.4 105.1h152.4v579.5c0 12.4-10.5 22.9-22.9 22.9H286c-12.4 0-22.9-10.5-22.9-22.9v-57.9h-82.5v57.9c0 58 47.3 105.1 105.4 105.1h599.2c58.1 0 105.4-47.2 105.4-105.1V288.4c0-3.9-2.2-9.3-5-12l-50.2-50c-0.8-0.8-1.5-1.6-2.3-2.4l-167-166.8z m-33.2 177V129.1c0-3.9 2.2-4.8 5-2.1l125.3 125c2.8 2.8 1.8 5-2.1 5H755.8c-12.4 0.1-22.9-10.4-22.9-22.8zM679.7 598.5H68c-15.1 0-27.5 12.3-27.5 27.4v180.6c0 15.1 12.4 27.4 27.5 27.4h611.7c15.1 0 27.5-12.3 27.5-27.4V626c0-15.1-12.4-27.5-27.5-27.5zM280.5 791.6h-35.8L218.9 693c-1.4-5.3-2.2-10.9-2.4-16.7h-0.4c-0.7 6.8-1.6 12.3-2.7 16.7L187 791.6h-37.2l-40.3-151.3h35.4l22.5 102.5c1 4.5 1.7 10.2 2.1 17h0.7c0.3-5.3 1.3-11.2 3-17.5l28.1-102.1h34.3L261 743.6c1 4.1 1.9 9.4 2.4 16h0.5c0.3-5.7 1-11.2 2.2-16.6l22-102.7h32.7l-40.3 151.3z m230.1 0h-31.8v-91.8c0-8.5 0.4-19.1 1.3-31.9h-0.8c-2 9.7-3.5 16.2-4.7 19.4l-37.3 104.3h-25.7l-37.8-103.3c-0.9-2.5-2.5-9.3-4.8-20.4h-0.9c0.8 12.7 1.3 25.4 1.3 38.2v85.5h-29.1V640.3h46.9l32.6 91.4c2.7 7.6 4.6 14.6 5.6 21.3h0.7c2-8.3 4.1-15.4 6.3-21.5l32.7-91.2h45.6v151.3z m117.3-86.1v26.4h-49.7v59.7H546V640.3h86.2v26.4h-54v38.9h49.7zM592.6 168.5H323.8c-13.5 0-24.4 10.9-24.4 24.4v244.4c0 13.5 10.9 24.4 24.4 24.4h268.8c13.5 0 24.4-10.9 24.4-24.4V192.9c0-13.5-10.9-24.4-24.4-24.4z m0 268.8H323.8V192.9h268.8v244.4zM384.9 278.4c13.5 0 24.4-10.9 24.4-24.4 0-13.5-10.9-24.4-24.4-24.4-13.5 0-24.4 10.9-24.4 24.4-0.1 13.5 10.9 24.4 24.4 24.4zM507.1 265.2l-72.4 109.7-37.5-56-61.2 93.9h244.4l-73.3-147.6z" /></svg>