<svg class="icon" style="width: 1em; height: 1em;vertical-align: middle;fill: currentColor;overflow: hidden;" viewBox="0 0 1024 1024" version="1.1" xmlns="http://www.w3.org/2000/svg"><path d="M766.1 57.2c-0.8-0.8-1.6-1.4-2.4-2.2l-50-50c-2.8-2.8-8.2-5-12.1-5H286c-58.1 0-105.4 47.2-105.4 105.1v465.5h82.5V105.1c0-12.4 10.5-22.9 22.9-22.9h364.4v152c0 58 47.3 105.1 105.4 105.1h152.4v579.5c0 12.4-10.5 22.9-22.9 22.9H286c-12.4 0-22.9-10.5-22.9-22.9v-57.9h-82.5v57.9c0 58 47.3 105.1 105.4 105.1h599.2c58.1 0 105.4-47.2 105.4-105.1V288.4c0-3.9-2.2-9.3-5-12l-50.2-50c-0.8-0.8-1.5-1.6-2.3-2.4l-167-166.8z m-33.2 177V129.1c0-3.9 2.2-4.8 5-2.1l125.3 125c2.8 2.8 1.8 5-2.1 5H755.8c-12.4 0.1-22.9-10.4-22.9-22.8zM835.9 532h-38.3l-27.1-50.2c-1-1.8-2-5.1-3-9.9h-0.4c-0.5 2.3-1.7 5.7-3.5 10.2L736.3 532h-38.6l48.5-75.7-44.2-75.5h39.3l22.6 46.3c1.8 3.8 3.4 7.9 4.7 12.5h0.4c1.4-4.1 3-8.4 5-13l24.9-45.8h36l-45.7 75 46.7 76.2zM538 319v213h-39.9V319zM602.9 228v304H563V228zM474.4 155v377h-39.9V155zM410.7 434v98h-39.9v-98zM347.1 280v252h-39.9V280zM679.7 598.5H68c-15.1 0-27.5 12.3-27.5 27.4v180.6c0 15.1 12.4 27.4 27.5 27.4h611.7c15.1 0 27.5-12.3 27.5-27.4V626c0-15.1-12.4-27.5-27.5-27.5z m-390 193.1l-27.1-50.2c-1-1.8-2-5.1-3-9.9h-0.4c-0.5 2.3-1.7 5.7-3.5 10.2l-27.2 49.9h-38.6l48.5-75.7-44.4-75.6h39.3l22.6 46.3c1.8 3.8 3.4 7.9 4.7 12.5h0.4c1.4-4.1 3-8.4 5-13l24.9-45.8h36l-45.7 75 46.9 76.3h-38.4z m145.6 0h-88.8V640.3h32.2v124.9h56.5v26.4z m100.1-8.8c-10.3 7.6-24.9 11.4-43.8 11.4-17.3 0-31.5-2.8-42.6-8.4v-32.3c12.2 10.1 26 15.1 41.5 15.1 8.8 0 15.4-1.5 19.8-4.5s6.6-6.9 6.6-11.7c0-4.1-1.8-8-5.3-11.6-3.5-3.6-12.8-8.6-27.8-14.8-23.6-10-35.4-24.6-35.4-43.8 0-14.1 5.4-25 16.1-32.8 10.7-7.8 24.9-11.7 42.5-11.7 14.8 0 27.2 1.9 37.2 5.8v30.3c-10.2-6.9-22-10.4-35.6-10.4-7.9 0-14.3 1.4-19 4.3-4.8 2.9-7.1 6.8-7.1 11.7 0 3.9 1.6 7.5 4.9 10.8 3.3 3.3 11.3 7.7 24.1 13.3 15 6.4 25.4 13.2 31 20.4 5.6 7.2 8.4 15.7 8.4 25.6-0.1 14.6-5.2 25.7-15.5 33.3z" /></svg>