<svg class="icon" style="width: 1em; height: 1em;vertical-align: middle;fill: currentColor;overflow: hidden;" viewBox="0 0 1024 1024" version="1.1" xmlns="http://www.w3.org/2000/svg"><path d="M766.1 57.2c-0.8-0.8-1.6-1.4-2.4-2.2l-50-50c-2.8-2.8-8.2-5-12.1-5H286c-58.1 0-105.4 47.2-105.4 105.1v465.5h82.5V105.1c0-12.4 10.5-22.9 22.9-22.9h364.4v152c0 58 47.3 105.1 105.4 105.1h152.4v579.5c0 12.4-10.5 22.9-22.9 22.9H286c-12.4 0-22.9-10.5-22.9-22.9v-57.9h-82.5v57.9c0 58 47.3 105.1 105.4 105.1h599.2c58.1 0 105.4-47.2 105.4-105.1V288.4c0-3.9-2.2-9.3-5-12l-50.2-50c-0.8-0.8-1.5-1.6-2.3-2.4l-167-166.8z m-33.2 177V129.1c0-3.9 2.2-4.8 5-2.1l125.3 125c2.8 2.8 1.8 5-2.1 5H755.8c-12.4 0.1-22.9-10.4-22.9-22.8zM679.7 598.5H68c-15.1 0-27.5 12.3-27.5 27.4v180.6c0 15.1 12.4 27.4 27.5 27.4h611.7c15.1 0 27.5-12.3 27.5-27.4V626c0-15.1-12.4-27.5-27.5-27.5z m-345.1 59.3l-77.3 107.4h77.2v26.4H213.6v-18l78.7-106.9h-72.9v-26.4h115.1v17.5z m67.6 7.6h-13v101.1h13v25.1h-58v-25.1H357V665.4h-12.8v-25.1h58v25.1z m113.4 60c-11.4 9.3-25.6 13.8-42.6 13.4h-16.6v52.7h-32.2V640.3h52.1c37.6 0 56.4 16 56.4 47.9 0 15.5-5.7 27.9-17.1 37.2zM470.7 665.3h-14.3v48.8h14c18.9 0 28.4-8.2 28.4-24.7 0-16.1-9.4-24.1-28.1-24.1zM468.4 81.5h71v47.4h-71zM397.4 128.9h71v47.3h-71zM468.4 176.2h71v47.3h-71zM397.4 223.5h71v47.3h-71zM468.4 270.8h71v47.3h-71zM397.4 318.1h71v47.3h-71zM468.4 365.4h71v47.3h-71zM397.4 412.7h142V460h-142zM397.4 460h15.1v47.3h-15.1zM523.7 460h15.7v47.3h-15.7zM539.4 543.1c0 13.1-11 11.5-24.5 11.5H422c-13.6 0-24.5 1.7-24.5-11.3V531v-23.6h141.9v35.7z" /></svg>