<?xml version="1.0" standalone="no"?><!DOCTYPE svg PUBLIC "-//W3C//DTD SVG 1.1//EN" "http://www.w3.org/Graphics/SVG/1.1/DTD/svg11.dtd"><svg t="1554266132560" class="icon" style="" viewBox="0 0 1024 1024" version="1.1" xmlns="http://www.w3.org/2000/svg" p-id="3080" xmlns:xlink="http://www.w3.org/1999/xlink" width="200" height="200"><defs><style type="text/css"></style></defs><path d="M864 128H544v-16a32 32 0 0 0-64 0v16H160a32 32 0 0 0 0 64h704a32 32 0 0 0 0-64z m-64 128a32 32 0 0 0-32 32v592H256V288a32 32 0 0 0-64 0v624a32 32 0 0 0 32 32h576a32 32 0 0 0 32-32V288a32 32 0 0 0-32-32zM416 784V304a32 32 0 0 0-64 0v480a32 32 0 0 0 64 0z m128 0V304a32 32 0 0 0-64 0v480a32 32 0 0 0 64 0z m128 0V304a32 32 0 0 0-64 0v480a32 32 0 0 0 64 0z" fill="" p-id="3081"></path></svg>