<?xml version="1.0" standalone="no"?><!DOCTYPE svg PUBLIC "-//W3C//DTD SVG 1.1//EN" "http://www.w3.org/Graphics/SVG/1.1/DTD/svg11.dtd"><svg t="1546568443588" class="icon" style="" viewBox="0 0 1024 1024" version="1.1" xmlns="http://www.w3.org/2000/svg" p-id="4317" xmlns:xlink="http://www.w3.org/1999/xlink" width="200" height="200"><path d="M116.736 795.392l354.4064-613.888c18.1248-31.4368 63.488-31.4368 81.664 0l354.4064 613.888c18.1248 31.4368-4.5568 70.7072-40.8064 70.7072H157.5936c-36.3008 0-58.9824-39.3216-40.8576-70.7072z" fill="#FFC107" p-id="4318"></path><path d="M512 753.664c-15.9232 0-28.7232-12.8-28.7232-28.7232s12.8-28.7232 28.7232-28.7232 28.7232 12.8 28.7232 28.7232c0 15.872-12.8 28.7232-28.7232 28.7232z m5.632-89.2928h-15.36l-17.4592-220.6208c-1.024-18.4832 9.216-39.9872 25.6512-39.9872 17.4592 0 28.2112 21.0432 26.6752 39.9872l-19.5072 220.6208z" fill="#5D4037" p-id="4319"></path></svg>