<?xml version="1.0" standalone="no"?><!DOCTYPE svg PUBLIC "-//W3C//DTD SVG 1.1//EN" "http://www.w3.org/Graphics/SVG/1.1/DTD/svg11.dtd"><svg t="1557448428906" class="icon" style="" viewBox="0 0 1024 1024" version="1.1" xmlns="http://www.w3.org/2000/svg" p-id="23620" xmlns:xlink="http://www.w3.org/1999/xlink" width="200" height="200"><defs><style type="text/css"></style></defs><path d="M825.519584 281.262872 528.681086 281.262872c-18.023207 0-32.857662-13.675464-34.694572-31.213909-0.034794-0.718361-0.098241-1.428535-0.154526-2.140757-0.02149-0.508583-0.038887-1.019213-0.038887-1.532913l0 0.118704-0.068564 0c-3.509061-35.255968-33.256767-62.780859-69.427007-62.780859L197.516422 183.713138c-38.531104 0-69.778015 31.233352-69.778015 69.775156l0 516.201695c0 38.534642 31.246912 69.774133 69.778015 69.774133l628.003162 0c38.531104 0 69.778015-31.238468 69.778015-69.774133L895.297599 351.038028C895.297599 312.496224 864.050688 281.262872 825.519584 281.262872zM860.409615 769.688967c0 19.267832-15.625503 34.887578-34.890031 34.887578L197.516422 804.576545c-19.270669 0-34.889008-15.619746-34.889008-34.887578L162.627414 385.925606l697.782201 0L860.409615 769.688967zM162.627414 351.038028l0-97.549733c0-19.264762 15.618339-34.887578 34.889008-34.887578l226.780085 0c18.044698 0 32.889385 13.703093 34.701735 31.267121 0.03377 0.680499 0.093125 1.352811 0.146339 2.02717 0.023537 0.528026 0.040934 1.058099 0.040934 1.592264l0.083915 0c3.564322 35.198663 33.282351 62.662155 69.41268 62.662155l296.838498 0c19.264528 0 34.890031 15.622816 34.890031 34.887578L162.627414 351.037005z" p-id="23621"></path></svg>