<?xml version="1.0" standalone="no"?><!DOCTYPE svg PUBLIC "-//W3C//DTD SVG 1.1//EN" "http://www.w3.org/Graphics/SVG/1.1/DTD/svg11.dtd"><svg t="1546738457090" class="icon" style="" viewBox="0 0 1024 1024" version="1.1" xmlns="http://www.w3.org/2000/svg" p-id="4030" xmlns:xlink="http://www.w3.org/1999/xlink" width="200" height="200"><path d="M763.374345 570.191448a17.160828 17.160828 0 0 0-16.843035 17.37269v190.958345c0 19.138207-15.077517 34.674759-33.580138 34.674758h-117.654069c-9.321931 0-16.843034 7.768276-16.843034 17.302069s7.521103 17.37269 16.843034 17.37269h117.654069c37.181793 0 67.301517-31.214345 67.301518-69.490759v-190.852413a17.196138 17.196138 0 0 0-16.878345-17.33738z" fill="#1296db" p-id="4031"></path><path d="M860.19531 525.771034l-336.331034-347.20662a16.384 16.384 0 0 0-23.728552 0l-252.080552 260.16662-0.388413 0.423725-83.89738 86.616275a17.831724 17.831724 0 0 0 0 24.50538 16.525241 16.525241 0 0 0 23.799173 0l55.33131-57.132138v287.955862c0 38.241103 30.190345 69.455448 67.266207 69.455448h117.76c9.216 0 16.772414-7.768276 16.772414-17.302069v-156.248276h151.304827a17.125517 17.125517 0 0 0 16.843035-17.337379c0-9.533793-7.521103-17.302069-16.843035-17.302069h-168.077241a17.090207 17.090207 0 0 0-16.843035 17.302069v156.212966H310.23669c-18.537931 0-33.580138-15.465931-33.580138-34.568828V458.681379l235.378758-243.005793 324.431449 334.918621a16.34869 16.34869 0 0 0 23.799172 0 18.255448 18.255448 0 0 0-0.070621-24.823173z" fill="#1296db" p-id="4032"></path></svg>