<?xml version="1.0" standalone="no"?><!DOCTYPE svg PUBLIC "-//W3C//DTD SVG 1.1//EN" "http://www.w3.org/Graphics/SVG/1.1/DTD/svg11.dtd"><svg t="1560478986069" class="icon" style="" viewBox="0 0 1024 1024" version="1.1" xmlns="http://www.w3.org/2000/svg" p-id="2739" xmlns:xlink="http://www.w3.org/1999/xlink" width="200" height="200"><defs><style type="text/css"></style></defs><path d="M256 307.2H204.8a51.2 51.2 0 0 0-51.2 51.2v460.8a51.2 51.2 0 0 0 51.2 51.2h460.8a51.2 51.2 0 0 0 51.2-51.2v-51.2H358.4a102.4 102.4 0 0 1-102.4-102.4V307.2z m51.2-51.2v409.6a51.2 51.2 0 0 0 51.2 51.2h409.6v102.4a102.4 102.4 0 0 1-102.4 102.4H204.8a102.4 102.4 0 0 1-102.4-102.4V358.4a102.4 102.4 0 0 1 102.4-102.4h102.4z" p-id="2740"></path><path d="M358.4 153.6a51.2 51.2 0 0 0-51.2 51.2v460.8a51.2 51.2 0 0 0 51.2 51.2h460.8a51.2 51.2 0 0 0 51.2-51.2V204.8a51.2 51.2 0 0 0-51.2-51.2H358.4z m0-51.2h460.8a102.4 102.4 0 0 1 102.4 102.4v460.8a102.4 102.4 0 0 1-102.4 102.4H358.4a102.4 102.4 0 0 1-102.4-102.4V204.8a102.4 102.4 0 0 1 102.4-102.4z" p-id="2741"></path></svg>