<?xml version="1.0" standalone="no"?><!DOCTYPE svg PUBLIC "-//W3C//DTD SVG 1.1//EN" "http://www.w3.org/Graphics/SVG/1.1/DTD/svg11.dtd"><svg t="1546918018090" class="icon" style="" viewBox="0 0 1024 1024" version="1.1" xmlns="http://www.w3.org/2000/svg" p-id="1507" id="mx_n_1546918018093" xmlns:xlink="http://www.w3.org/1999/xlink" width="200" height="200"><path d="M221.76 914.218667a150.229333 69.781333 0 1 0 300.458667 0 150.229333 69.781333 0 1 0-300.458667 0Z" fill="#FFBD14" p-id="1508"></path><path d="M376.448 971.562667c-82.965333 0-150.229333-31.232-150.229333-69.781334 0-1.728 0.298667-3.434667 0.554666-5.141333a35.84 35.84 0 0 0-5.013333 17.6c0 38.528 67.264 69.781333 150.229333 69.781333 79.232 0 143.978667-28.501333 149.653334-64.64-16.789333 29.994667-75.328 52.181333-145.194667 52.181334z" fill="#EF9E0D" p-id="1509"></path><path d="M539.989333 914.218667a150.229333 69.781333 0 1 0 300.458667 0 150.229333 69.781333 0 1 0-300.458667 0Z" fill="#FFBD14" p-id="1510"></path><path d="M685.781333 971.562667c82.965333 0 150.229333-31.232 150.229334-69.781334 0-1.728-0.298667-3.434667-0.554667-5.141333 3.157333 5.632 5.013333 11.498667 5.013333 17.6 0 38.528-67.264 69.781333-150.229333 69.781333-79.232 0-143.978667-28.501333-149.653333-64.64 16.768 29.994667 75.328 52.181333 145.194666 52.181334z" fill="#EF9E0D" p-id="1511"></path><path d="M865.28 512l-33.770667-108.437333c0-353.045333-285.44-354.218667-300.202666-354.218667-15.338667 0-300.181333 1.173333-300.181334 354.218667L197.333333 512s-114.666667 144-37.333333 269.333333c8.661333 5.994667 9.344 28.010667 56-70.677333 0 0 62.634667 220.693333 313.728 222.570667v0.085333l1.578667-0.042667 1.578666 0.042667v-0.085333c251.072-1.877333 313.728-222.570667 313.728-222.570667 46.677333 98.666667 47.616 78.677333 56 70.677333 77.333333-125.333333-37.333333-269.333333-37.333333-269.333333z" fill="#121214" p-id="1512"></path><path d="M544.448 281.770667a85.333333 60.672 90 1 0 121.344 0 85.333333 60.672 90 1 0-121.344 0Z" fill="#FFFFFF" p-id="1513"></path><path d="M388.48 281.770667a85.333333 60.672 90 1 0 121.344 0 85.333333 60.672 90 1 0-121.344 0Z" fill="#FFFFFF" p-id="1514"></path><path d="M437.781333 281.770667a43.456 30.890667 90 1 0 61.781334 0 43.456 30.890667 90 1 0-61.781334 0Z" fill="#161616" p-id="1515"></path><path d="M567.488 308.608a6.4 6.4 0 0 1-6.378667-5.738667c-0.405333-3.818667-3.477333-37.76 11.008-53.824 9.834667-10.922667 28.032-10.922667 37.866667 0 14.485333 16.064 11.370667 50.005333 10.986667 53.824a6.186667 6.186667 0 0 1-7.04 5.696 6.421333 6.421333 0 0 1-5.717334-7.04c0.917333-8.810667 1.322667-33.877333-7.744-43.925333a12.650667 12.650667 0 0 0-18.837333 0c-9.109333 10.090667-8.704 35.136-7.765333 43.925333a6.4 6.4 0 0 1-5.717334 7.04c-0.234667 0.042667-0.469333 0.042667-0.661333 0.042667z" fill="#181818" p-id="1516"></path><path d="M468.650667 269.717333a13.312 9.472 90 1 0 18.944 0 13.312 9.472 90 1 0-18.944 0Z" fill="#FFFFFF" p-id="1517"></path><path d="M693.333333 407.104c-49.344-23.104-128.448-30.677333-160.448-30.677333s-111.104 7.552-160.448 30.677333c-23.552 8-32.896 14.229333-32.896 21.781333 0 7.552 59.562667 52.010667 123.114667 79.104 29.866667 15.104 38.677333 28.010667 70.229333 28.010667s40.341333-12.885333 70.229334-28.010667c63.552-27.114667 123.114667-71.552 123.114666-79.104 0-7.552-9.344-13.781333-32.896-21.781333z" fill="#FAB718" p-id="1518"></path><path d="M376.448 431.104s65.770667 46.229333 152.448 46.229333 157.333333-46.229333 157.333333-46.229333-52.437333 34.666667-92.885333 58.666667-45.781333 30.677333-66.218667 30.677333c-20.437333 0-46.677333-24.896-58.453333-30.677333-11.776-5.76-44.224-29.76-92.224-58.666667z" fill="#8C2B01" p-id="1519"></path><path d="M777.322667 475.776c-103.146667 85.994667-245.994667 76.224-245.994667 76.224s-142.848 9.770667-245.994667-76.224c0 0-98.218667 442.453333 245.994667 442.453333s245.994667-442.453333 245.994667-442.453333z" fill="#F9F9F9" p-id="1520"></path><path d="M831.552 403.562667s-82.218667 147.562667-300.224 147.562666-300.224-147.562667-300.224-147.562666c-34.666667 95.104-33.770667 108.437333-33.770667 108.437333a416.170667 416.170667 0 0 0 118.442667 91.306667c-2.901333 31.701333-6.869333 80.490667-6.442667 105.365333 0.661333 38.677333 24.277333 41.344 79.146667 46.677333 54.848 5.333333 43.52-9.344 43.52-34.005333v-77.888c58.176 11.2 99.328 7.232 99.328 7.232s190.890667 19.562667 333.994667-138.666667c0-0.021333 0.896-13.354667-33.770667-108.458666z" fill="#E32B10" p-id="1521"></path></svg>