<?xml version="1.0" standalone="no"?><!DOCTYPE svg PUBLIC "-//W3C//DTD SVG 1.1//EN" "http://www.w3.org/Graphics/SVG/1.1/DTD/svg11.dtd"><svg t="1554191222577" class="icon" style="" viewBox="0 0 1024 1024" version="1.1" xmlns="http://www.w3.org/2000/svg" p-id="2657" xmlns:xlink="http://www.w3.org/1999/xlink" width="48" height="48"><defs><style type="text/css"></style></defs><path d="M512.020978 256.514211l0-95.771227-127.737266 127.695311 127.737266 127.780245 0-95.834672c105.369839 0 191.585433 86.214571 191.585433 191.605899 0 31.902594-9.556657 63.848167-22.325471 89.408309l47.864124 47.88459c22.367427-41.521672 38.310537-86.214571 38.310537-137.293923C767.454578 371.482663 652.528082 256.514211 512.020978 256.514211M512.020978 703.5752c-105.411795 0-191.585433-86.215594-191.585433-191.585433 0-31.924083 9.556657-63.868633 22.325471-89.428775l-47.864124-47.864124c-22.367427 41.521672-38.352493 86.194104-38.352493 137.292899 0 140.507104 114.968451 255.454066 255.475556 255.454066l0 95.813183 127.737266-127.7168-127.737266-127.780245L512.019954 703.5752z" p-id="2658"></path></svg>