<?xml version="1.0" standalone="no"?><!DOCTYPE svg PUBLIC "-//W3C//DTD SVG 1.1//EN" "http://www.w3.org/Graphics/SVG/1.1/DTD/svg11.dtd"><svg t="1557467891031" class="icon" style="" viewBox="0 0 1024 1024" version="1.1" xmlns="http://www.w3.org/2000/svg" p-id="1969" xmlns:xlink="http://www.w3.org/1999/xlink" width="200" height="200"><defs><style type="text/css"></style></defs><path d="M914.432 219.648H109.568C36.352 219.648 0 256 0 329.216v365.568c0 73.216 36.352 109.568 109.568 109.568h804.352c73.216 0 109.568-36.352 109.568-109.568V329.216c0.512-73.216-35.84-109.568-109.056-109.568zM276.992 650.24c-10.752 0-20.48-10.24-28.672-31.232L153.6 373.76h73.216l66.048 168.448L398.848 373.76h73.216l-158.72 245.76c-13.824 20.48-26.112 30.72-36.352 30.72z m174.08-4.096L489.472 373.76h68.096l-38.912 272.384H451.072z m418.304-170.496c-4.096 29.184-19.456 55.296-42.496 73.216-22.528 17.92-50.688 27.648-79.36 27.648h-114.176l-9.728 68.608h-67.584l19.968-138.752h188.416c8.704 0 17.408-3.072 24.576-8.704 6.656-5.12 11.264-12.8 12.8-21.504 2.048-8.192-0.512-16.896-6.144-23.04-6.144-5.632-13.824-8.704-22.528-8.192h-187.392L640 373.76h137.216c27.136-1.536 53.76 8.192 73.216 27.136 17.408 20.48 24.576 48.128 18.944 74.752z" fill="#DCBC85" p-id="1970"></path></svg>