<?xml version="1.0" standalone="no"?><!DOCTYPE svg PUBLIC "-//W3C//DTD SVG 1.1//EN" "http://www.w3.org/Graphics/SVG/1.1/DTD/svg11.dtd"><svg t="1553674262998" class="icon" style="" viewBox="0 0 1024 1024" version="1.1" xmlns="http://www.w3.org/2000/svg" p-id="2241" xmlns:xlink="http://www.w3.org/1999/xlink" width="48" height="48"><defs><style type="text/css"></style></defs><path d="M85.333333 128v767.957333l853.290667 0.042667 0.042667-597.333333H414.677333l-30.293333-122.282667c-4.906667-36.394667-9.472-45.184-11.776-47.232-0.042667 0-2.261333-1.152-9.045333-1.152H85.333333z m853.290667 853.333333h-853.248C38.314667 981.333333 0 943.061333 0 895.957333V128C0 80.938667 38.272 42.666667 85.333333 42.666667h278.229334c87.210667 0 99.2 76.714667 105.045333 119.936L481.322667 213.333333h457.386666c47.061333 0 85.290667 38.272 85.290667 85.290667v597.333333c0 47.104-38.272 85.376-85.376 85.376z" p-id="2242"></path><path d="M896 213.333333c-23.594667 0-42.666667-19.114667-42.666667-42.666666H554.666667c-23.552 0-42.666667-19.114667-42.666667-42.666667s19.114667-42.666667 42.666667-42.666667h298.666666c47.061333 0 85.333333 38.272 85.333334 85.333334 0 23.552-19.072 42.666667-42.666667 42.666666M810.666667 469.333333H213.333333c-23.466667 0-42.666667-19.2-42.666666-42.666666s19.2-42.666667 42.666666-42.666667h597.333334c23.466667 0 42.666667 19.2 42.666666 42.666667s-19.2 42.666667-42.666666 42.666666" p-id="2243"></path></svg>